<?xml version="1.0" encoding="UTF-8" standalone="no"?>
<!DOCTYPE svg PUBLIC "-//W3C//DTD SVG 1.1//EN"
 "http://www.w3.org/Graphics/SVG/1.1/DTD/svg11.dtd">
<!-- Generated by graphviz version 2.43.0 (0)
 -->
<!-- Title: include/meltpooldg/level_set/curvature_operation_base.hpp Pages: 1 -->
<svg width="1083pt" height="412pt"
 viewBox="0.00 0.00 1083.35 412.00" xmlns="http://www.w3.org/2000/svg" xmlns:xlink="http://www.w3.org/1999/xlink">
<g id="graph0" class="graph" transform="scale(1 1) rotate(0) translate(4 408)">
<title>include/meltpooldg/level_set/curvature_operation_base.hpp</title>
<!-- Node1 -->
<g id="Node000001" class="node">
<title>Node1</title>
<g id="a_Node000001"><a xlink:title=" ">
<polygon fill="#999999" stroke="#666666" points="695.41,-404 577.41,-404 577.41,-363 695.41,-363 695.41,-404"/>
<text text-anchor="start" x="585.41" y="-392" font-family="Helvetica,sans-Serif" font-size="10.00">include/meltpooldg</text>
<text text-anchor="start" x="585.41" y="-381" font-family="Helvetica,sans-Serif" font-size="10.00">/level_set/curvature</text>
<text text-anchor="middle" x="636.41" y="-370" font-family="Helvetica,sans-Serif" font-size="10.00">_operation_base.hpp</text>
</a>
</g>
</g>
<!-- Node2 -->
<g id="Node000002" class="node">
<title>Node2</title>
<g id="a_Node000002"><a xlink:href="curvature__DG__operation_8hpp.html" target="_top" xlink:title=" ">
<polygon fill="white" stroke="#666666" points="480.91,-327 367.91,-327 367.91,-286 480.91,-286 480.91,-327"/>
<text text-anchor="start" x="375.91" y="-315" font-family="Helvetica,sans-Serif" font-size="10.00">include/meltpooldg</text>
<text text-anchor="start" x="375.91" y="-304" font-family="Helvetica,sans-Serif" font-size="10.00">/level_set/curvature</text>
<text text-anchor="middle" x="424.41" y="-293" font-family="Helvetica,sans-Serif" font-size="10.00">_DG_operation.hpp</text>
</a>
</g>
</g>
<!-- Node1&#45;&gt;Node2 -->
<g id="edge1_Node000001_Node000002" class="edge">
<title>Node1&#45;&gt;Node2</title>
<g id="a_edge1_Node000001_Node000002"><a xlink:title=" ">
<path fill="none" stroke="#63b8ff" d="M571.51,-359.54C542.13,-349.15 507.77,-336.99 479.65,-327.04"/>
<polygon fill="#63b8ff" stroke="#63b8ff" points="570.67,-362.95 581.27,-362.99 573.01,-356.36 570.67,-362.95"/>
</a>
</g>
</g>
<!-- Node11 -->
<g id="Node000011" class="node">
<title>Node11</title>
<g id="a_Node000011"><a xlink:href="curvature__operation_8hpp.html" target="_top" xlink:title=" ">
<polygon fill="white" stroke="#666666" points="692.91,-327 579.91,-327 579.91,-286 692.91,-286 692.91,-327"/>
<text text-anchor="start" x="587.91" y="-315" font-family="Helvetica,sans-Serif" font-size="10.00">include/meltpooldg</text>
<text text-anchor="start" x="587.91" y="-304" font-family="Helvetica,sans-Serif" font-size="10.00">/level_set/curvature</text>
<text text-anchor="middle" x="636.41" y="-293" font-family="Helvetica,sans-Serif" font-size="10.00">_operation.hpp</text>
</a>
</g>
</g>
<!-- Node1&#45;&gt;Node11 -->
<g id="edge12_Node000001_Node000011" class="edge">
<title>Node1&#45;&gt;Node11</title>
<g id="a_edge12_Node000001_Node000011"><a xlink:title=" ">
<path fill="none" stroke="#63b8ff" d="M636.41,-352.69C636.41,-344.08 636.41,-334.9 636.41,-327.07"/>
<polygon fill="#63b8ff" stroke="#63b8ff" points="632.91,-352.79 636.41,-362.79 639.91,-352.79 632.91,-352.79"/>
</a>
</g>
</g>
<!-- Node14 -->
<g id="Node000014" class="node">
<title>Node14</title>
<g id="a_Node000014"><a xlink:href="level__set__operation_8hpp.html" target="_top" xlink:title=" ">
<polygon fill="white" stroke="#666666" points="927.91,-327 816.91,-327 816.91,-286 927.91,-286 927.91,-327"/>
<text text-anchor="start" x="824.91" y="-315" font-family="Helvetica,sans-Serif" font-size="10.00">include/meltpooldg</text>
<text text-anchor="start" x="824.91" y="-304" font-family="Helvetica,sans-Serif" font-size="10.00">/level_set/level_set</text>
<text text-anchor="middle" x="872.41" y="-293" font-family="Helvetica,sans-Serif" font-size="10.00">_operation.hpp</text>
</a>
</g>
</g>
<!-- Node1&#45;&gt;Node14 -->
<g id="edge16_Node000001_Node000014" class="edge">
<title>Node1&#45;&gt;Node14</title>
<g id="a_edge16_Node000001_Node000014"><a xlink:title=" ">
<path fill="none" stroke="#63b8ff" d="M705.45,-360.56C740.89,-349.3 783.49,-335.76 816.79,-325.18"/>
<polygon fill="#63b8ff" stroke="#63b8ff" points="704.13,-357.31 695.66,-363.67 706.25,-363.98 704.13,-357.31"/>
</a>
</g>
</g>
<!-- Node3 -->
<g id="Node000003" class="node">
<title>Node3</title>
<g id="a_Node000003"><a xlink:href="level__set__DG__operation_8hpp.html" target="_top" xlink:title=" ">
<polygon fill="white" stroke="#666666" points="506.91,-173 395.91,-173 395.91,-132 506.91,-132 506.91,-173"/>
<text text-anchor="start" x="403.91" y="-161" font-family="Helvetica,sans-Serif" font-size="10.00">include/meltpooldg</text>
<text text-anchor="start" x="403.91" y="-150" font-family="Helvetica,sans-Serif" font-size="10.00">/level_set/level_set</text>
<text text-anchor="middle" x="451.41" y="-139" font-family="Helvetica,sans-Serif" font-size="10.00">_DG_operation.hpp</text>
</a>
</g>
</g>
<!-- Node2&#45;&gt;Node3 -->
<g id="edge2_Node000002_Node000003" class="edge">
<title>Node2&#45;&gt;Node3</title>
<g id="a_edge2_Node000002_Node000003"><a xlink:title=" ">
<path fill="none" stroke="#63b8ff" d="M443.88,-277.13C448.6,-268.76 452.98,-259.33 455.41,-250 462.17,-224.04 458.92,-192.83 455.53,-173.08"/>
<polygon fill="#63b8ff" stroke="#63b8ff" points="440.86,-275.37 438.7,-285.75 446.85,-278.98 440.86,-275.37"/>
</a>
</g>
</g>
<!-- Node7 -->
<g id="Node000007" class="node">
<title>Node7</title>
<g id="a_Node000007"><a xlink:href="reinitialization__hyperbolic__DG__operation_8hpp.html" target="_top" xlink:title=" ">
<polygon fill="white" stroke="#666666" points="282.41,-250 116.41,-250 116.41,-209 282.41,-209 282.41,-250"/>
<text text-anchor="start" x="124.41" y="-238" font-family="Helvetica,sans-Serif" font-size="10.00">include/meltpooldg</text>
<text text-anchor="start" x="124.41" y="-227" font-family="Helvetica,sans-Serif" font-size="10.00">/level_set/reinitialization</text>
<text text-anchor="middle" x="199.41" y="-216" font-family="Helvetica,sans-Serif" font-size="10.00">_hyperbolic_DG_operation.hpp</text>
</a>
</g>
</g>
<!-- Node2&#45;&gt;Node7 -->
<g id="edge6_Node000002_Node000007" class="edge">
<title>Node2&#45;&gt;Node7</title>
<g id="a_edge6_Node000002_Node000007"><a xlink:title=" ">
<path fill="none" stroke="#63b8ff" d="M358.01,-283.37C326.33,-272.81 288.76,-260.28 258.14,-250.07"/>
<polygon fill="#63b8ff" stroke="#63b8ff" points="357.04,-286.73 367.64,-286.57 359.26,-280.09 357.04,-286.73"/>
</a>
</g>
</g>
<!-- Node10 -->
<g id="Node000010" class="node">
<title>Node10</title>
<g id="a_Node000010"><a xlink:href="curvature__DG__operation_8cpp.html" target="_top" xlink:title=" ">
<polygon fill="white" stroke="#666666" points="446.41,-244.5 300.41,-244.5 300.41,-214.5 446.41,-214.5 446.41,-244.5"/>
<text text-anchor="start" x="308.41" y="-232.5" font-family="Helvetica,sans-Serif" font-size="10.00">source/level_set/curvature</text>
<text text-anchor="middle" x="373.41" y="-221.5" font-family="Helvetica,sans-Serif" font-size="10.00">_DG_operation.cpp</text>
</a>
</g>
</g>
<!-- Node2&#45;&gt;Node10 -->
<g id="edge11_Node000002_Node000010" class="edge">
<title>Node2&#45;&gt;Node10</title>
<g id="a_edge11_Node000002_Node000010"><a xlink:title=" ">
<path fill="none" stroke="#63b8ff" d="M405.21,-277.26C397.7,-266.21 389.41,-254.02 383.18,-244.86"/>
<polygon fill="#63b8ff" stroke="#63b8ff" points="402.5,-279.49 411.01,-285.79 408.29,-275.56 402.5,-279.49"/>
</a>
</g>
</g>
<!-- Node4 -->
<g id="Node000004" class="node">
<title>Node4</title>
<g id="a_Node000004"><a xlink:href="level__set__application_8hpp.html" target="_top" xlink:title=" ">
<polygon fill="white" stroke="#666666" points="923.91,-96 760.91,-96 760.91,-66 923.91,-66 923.91,-96"/>
<text text-anchor="start" x="768.91" y="-84" font-family="Helvetica,sans-Serif" font-size="10.00">applications/mp&#45;level</text>
<text text-anchor="middle" x="842.41" y="-73" font-family="Helvetica,sans-Serif" font-size="10.00">&#45;set/level_set_application.hpp</text>
</a>
</g>
</g>
<!-- Node3&#45;&gt;Node4 -->
<g id="edge3_Node000003_Node000004" class="edge">
<title>Node3&#45;&gt;Node4</title>
<g id="a_edge3_Node000003_Node000004"><a xlink:title=" ">
<path fill="none" stroke="#63b8ff" d="M517.16,-139.81C585.03,-127.75 690.93,-108.93 763.32,-96.06"/>
<polygon fill="#63b8ff" stroke="#63b8ff" points="516.25,-136.42 507.02,-141.62 517.48,-143.31 516.25,-136.42"/>
</a>
</g>
</g>
<!-- Node6 -->
<g id="Node000006" class="node">
<title>Node6</title>
<g id="a_Node000006"><a xlink:href="level__set__DG__operation_8cpp.html" target="_top" xlink:title=" ">
<polygon fill="white" stroke="#666666" points="515.91,-96 386.91,-96 386.91,-66 515.91,-66 515.91,-96"/>
<text text-anchor="start" x="394.91" y="-84" font-family="Helvetica,sans-Serif" font-size="10.00">source/level_set/level</text>
<text text-anchor="middle" x="451.41" y="-73" font-family="Helvetica,sans-Serif" font-size="10.00">_set_DG_operation.cpp</text>
</a>
</g>
</g>
<!-- Node3&#45;&gt;Node6 -->
<g id="edge5_Node000003_Node000006" class="edge">
<title>Node3&#45;&gt;Node6</title>
<g id="a_edge5_Node000003_Node000006"><a xlink:title=" ">
<path fill="none" stroke="#63b8ff" d="M451.41,-121.66C451.41,-112.76 451.41,-103.42 451.41,-96.04"/>
<polygon fill="#63b8ff" stroke="#63b8ff" points="447.91,-121.77 451.41,-131.77 454.91,-121.77 447.91,-121.77"/>
</a>
</g>
</g>
<!-- Node5 -->
<g id="Node000005" class="node">
<title>Node5</title>
<g id="a_Node000005"><a xlink:href="level__set__application_8cpp.html" target="_top" xlink:title=" ">
<polygon fill="white" stroke="#666666" points="923.41,-30 761.41,-30 761.41,0 923.41,0 923.41,-30"/>
<text text-anchor="start" x="769.41" y="-18" font-family="Helvetica,sans-Serif" font-size="10.00">applications/mp&#45;level</text>
<text text-anchor="middle" x="842.41" y="-7" font-family="Helvetica,sans-Serif" font-size="10.00">&#45;set/level_set_application.cpp</text>
</a>
</g>
</g>
<!-- Node4&#45;&gt;Node5 -->
<g id="edge4_Node000004_Node000005" class="edge">
<title>Node4&#45;&gt;Node5</title>
<g id="a_edge4_Node000004_Node000005"><a xlink:title=" ">
<path fill="none" stroke="#63b8ff" d="M842.41,-55.54C842.41,-46.96 842.41,-37.61 842.41,-30.16"/>
<polygon fill="#63b8ff" stroke="#63b8ff" points="838.91,-55.8 842.41,-65.8 845.91,-55.8 838.91,-55.8"/>
</a>
</g>
</g>
<!-- Node7&#45;&gt;Node3 -->
<g id="edge8_Node000007_Node000003" class="edge">
<title>Node7&#45;&gt;Node3</title>
<g id="a_edge8_Node000007_Node000003"><a xlink:title=" ">
<path fill="none" stroke="#63b8ff" d="M275.49,-205.98C309.44,-195.91 349.94,-183.88 386.41,-173 389.46,-172.09 392.59,-171.16 395.75,-170.21"/>
<polygon fill="#63b8ff" stroke="#63b8ff" points="274.23,-202.7 265.63,-208.9 276.22,-209.41 274.23,-202.7"/>
</a>
</g>
</g>
<!-- Node7&#45;&gt;Node6 -->
<g id="edge9_Node000007_Node000006" class="edge">
<title>Node7&#45;&gt;Node6</title>
<g id="a_edge9_Node000007_Node000006"><a xlink:title=" ">
<path fill="none" stroke="#63b8ff" d="M106.44,-212.94C42.19,-198.29 -25.71,-172.45 10.41,-132 35.02,-104.45 270.18,-90.12 386.67,-84.66"/>
<polygon fill="#63b8ff" stroke="#63b8ff" points="105.77,-216.38 116.29,-215.11 107.27,-209.54 105.77,-216.38"/>
</a>
</g>
</g>
<!-- Node8 -->
<g id="Node000008" class="node">
<title>Node8</title>
<g id="a_Node000008"><a xlink:href="reinitialization__application_8cpp.html" target="_top" xlink:title=" ">
<polygon fill="white" stroke="#666666" points="189.41,-167.5 19.41,-167.5 19.41,-137.5 189.41,-137.5 189.41,-167.5"/>
<text text-anchor="start" x="27.41" y="-155.5" font-family="Helvetica,sans-Serif" font-size="10.00">applications/mp&#45;reinit</text>
<text text-anchor="middle" x="104.41" y="-144.5" font-family="Helvetica,sans-Serif" font-size="10.00">/reinitialization_application.cpp</text>
</a>
</g>
</g>
<!-- Node7&#45;&gt;Node8 -->
<g id="edge7_Node000007_Node000008" class="edge">
<title>Node7&#45;&gt;Node8</title>
<g id="a_edge7_Node000007_Node000008"><a xlink:title=" ">
<path fill="none" stroke="#63b8ff" d="M166.48,-202.5C151.65,-190.79 134.73,-177.44 122.31,-167.63"/>
<polygon fill="#63b8ff" stroke="#63b8ff" points="164.44,-205.35 174.45,-208.79 168.77,-199.85 164.44,-205.35"/>
</a>
</g>
</g>
<!-- Node9 -->
<g id="Node000009" class="node">
<title>Node9</title>
<g id="a_Node000009"><a xlink:href="reinitialization__hyperbolic__DG__operation_8cpp.html" target="_top" xlink:title=" ">
<polygon fill="white" stroke="#666666" points="377.41,-167.5 207.41,-167.5 207.41,-137.5 377.41,-137.5 377.41,-167.5"/>
<text text-anchor="start" x="215.41" y="-155.5" font-family="Helvetica,sans-Serif" font-size="10.00">source/level_set/reinitialization</text>
<text text-anchor="middle" x="292.41" y="-144.5" font-family="Helvetica,sans-Serif" font-size="10.00">_hyperbolic_DG_operation.cpp</text>
</a>
</g>
</g>
<!-- Node7&#45;&gt;Node9 -->
<g id="edge10_Node000007_Node000009" class="edge">
<title>Node7&#45;&gt;Node9</title>
<g id="a_edge10_Node000007_Node000009"><a xlink:title=" ">
<path fill="none" stroke="#63b8ff" d="M231.66,-202.5C246.17,-190.79 262.74,-177.44 274.9,-167.63"/>
<polygon fill="#63b8ff" stroke="#63b8ff" points="229.44,-199.79 223.85,-208.79 233.83,-205.24 229.44,-199.79"/>
</a>
</g>
</g>
<!-- Node11&#45;&gt;Node6 -->
<g id="edge14_Node000011_Node000006" class="edge">
<title>Node11&#45;&gt;Node6</title>
<g id="a_edge14_Node000011_Node000006"><a xlink:title=" ">
<path fill="none" stroke="#63b8ff" d="M588.1,-280.5C575.72,-272.19 563.38,-261.95 554.41,-250 521.35,-205.93 548.13,-177.05 516.41,-132 506.01,-117.21 489.93,-104.79 476.37,-96.03"/>
<polygon fill="#63b8ff" stroke="#63b8ff" points="586.32,-283.51 596.63,-285.93 590.08,-277.61 586.32,-283.51"/>
</a>
</g>
</g>
<!-- Node12 -->
<g id="Node000012" class="node">
<title>Node12</title>
<g id="a_Node000012"><a xlink:href="curvature__operation_8cpp.html" target="_top" xlink:title=" ">
<polygon fill="white" stroke="#666666" points="709.41,-244.5 563.41,-244.5 563.41,-214.5 709.41,-214.5 709.41,-244.5"/>
<text text-anchor="start" x="571.41" y="-232.5" font-family="Helvetica,sans-Serif" font-size="10.00">source/level_set/curvature</text>
<text text-anchor="middle" x="636.41" y="-221.5" font-family="Helvetica,sans-Serif" font-size="10.00">_operation.cpp</text>
</a>
</g>
</g>
<!-- Node11&#45;&gt;Node12 -->
<g id="edge13_Node000011_Node000012" class="edge">
<title>Node11&#45;&gt;Node12</title>
<g id="a_edge13_Node000011_Node000012"><a xlink:title=" ">
<path fill="none" stroke="#63b8ff" d="M636.41,-275.61C636.41,-265.01 636.41,-253.57 636.41,-244.86"/>
<polygon fill="#63b8ff" stroke="#63b8ff" points="632.91,-275.79 636.41,-285.79 639.91,-275.79 632.91,-275.79"/>
</a>
</g>
</g>
<!-- Node13 -->
<g id="Node000013" class="node">
<title>Node13</title>
<g id="a_Node000013"><a xlink:href="level__set__operation_8cpp.html" target="_top" xlink:title=" ">
<polygon fill="white" stroke="#666666" points="850.91,-244.5 727.91,-244.5 727.91,-214.5 850.91,-214.5 850.91,-244.5"/>
<text text-anchor="start" x="735.91" y="-232.5" font-family="Helvetica,sans-Serif" font-size="10.00">source/level_set/level</text>
<text text-anchor="middle" x="789.41" y="-221.5" font-family="Helvetica,sans-Serif" font-size="10.00">_set_operation.cpp</text>
</a>
</g>
</g>
<!-- Node11&#45;&gt;Node13 -->
<g id="edge15_Node000011_Node000013" class="edge">
<title>Node11&#45;&gt;Node13</title>
<g id="a_edge15_Node000011_Node000013"><a xlink:title=" ">
<path fill="none" stroke="#63b8ff" d="M685.45,-281.46C710.18,-269.34 739.32,-255.06 760.45,-244.7"/>
<polygon fill="#63b8ff" stroke="#63b8ff" points="683.65,-278.45 676.21,-285.99 686.73,-284.73 683.65,-278.45"/>
</a>
</g>
</g>
<!-- Node14&#45;&gt;Node4 -->
<g id="edge17_Node000014_Node000004" class="edge">
<title>Node14&#45;&gt;Node4</title>
<g id="a_edge17_Node000014_Node000004"><a xlink:title=" ">
<path fill="none" stroke="#63b8ff" d="M938.14,-303.6C977.83,-298.63 1025.58,-285.06 1051.41,-250 1082.53,-207.78 1083.9,-173.17 1051.41,-132 1035.41,-111.72 975.55,-98.75 923.97,-91.11"/>
<polygon fill="#63b8ff" stroke="#63b8ff" points="937.54,-300.14 927.98,-304.71 938.3,-307.1 937.54,-300.14"/>
</a>
</g>
</g>
<!-- Node14&#45;&gt;Node13 -->
<g id="edge20_Node000014_Node000013" class="edge">
<title>Node14&#45;&gt;Node13</title>
<g id="a_edge20_Node000014_Node000013"><a xlink:title=" ">
<path fill="none" stroke="#63b8ff" d="M842.92,-278.84C830.14,-267.3 815.7,-254.25 805.05,-244.63"/>
<polygon fill="#63b8ff" stroke="#63b8ff" points="840.84,-281.69 850.61,-285.79 845.53,-276.49 840.84,-281.69"/>
</a>
</g>
</g>
<!-- Node15 -->
<g id="Node000015" class="node">
<title>Node15</title>
<g id="a_Node000015"><a xlink:href="melt__pool__application_8hpp.html" target="_top" xlink:title=" ">
<polygon fill="white" stroke="#666666" points="1041.91,-244.5 868.91,-244.5 868.91,-214.5 1041.91,-214.5 1041.91,-244.5"/>
<text text-anchor="start" x="876.91" y="-232.5" font-family="Helvetica,sans-Serif" font-size="10.00">applications/mp&#45;melt</text>
<text text-anchor="middle" x="955.41" y="-221.5" font-family="Helvetica,sans-Serif" font-size="10.00">&#45;pool/melt_pool_application.hpp</text>
</a>
</g>
</g>
<!-- Node14&#45;&gt;Node15 -->
<g id="edge18_Node000014_Node000015" class="edge">
<title>Node14&#45;&gt;Node15</title>
<g id="a_edge18_Node000014_Node000015"><a xlink:title=" ">
<path fill="none" stroke="#63b8ff" d="M901.91,-278.84C914.69,-267.3 929.13,-254.25 939.78,-244.63"/>
<polygon fill="#63b8ff" stroke="#63b8ff" points="899.29,-276.49 894.22,-285.79 903.99,-281.69 899.29,-276.49"/>
</a>
</g>
</g>
<!-- Node16 -->
<g id="Node000016" class="node">
<title>Node16</title>
<g id="a_Node000016"><a xlink:href="melt__pool__application_8cpp.html" target="_top" xlink:title=" ">
<polygon fill="white" stroke="#666666" points="1041.91,-167.5 868.91,-167.5 868.91,-137.5 1041.91,-137.5 1041.91,-167.5"/>
<text text-anchor="start" x="876.91" y="-155.5" font-family="Helvetica,sans-Serif" font-size="10.00">applications/mp&#45;melt</text>
<text text-anchor="middle" x="955.41" y="-144.5" font-family="Helvetica,sans-Serif" font-size="10.00">&#45;pool/melt_pool_application.cpp</text>
</a>
</g>
</g>
<!-- Node15&#45;&gt;Node16 -->
<g id="edge19_Node000015_Node000016" class="edge">
<title>Node15&#45;&gt;Node16</title>
<g id="a_edge19_Node000015_Node000016"><a xlink:title=" ">
<path fill="none" stroke="#63b8ff" d="M955.41,-204.04C955.41,-191.95 955.41,-177.79 955.41,-167.54"/>
<polygon fill="#63b8ff" stroke="#63b8ff" points="951.91,-204.39 955.41,-214.39 958.91,-204.39 951.91,-204.39"/>
</a>
</g>
</g>
</g>
</svg>
