<?xml version="1.0" encoding="UTF-8" standalone="no"?>
<!DOCTYPE svg PUBLIC "-//W3C//DTD SVG 1.1//EN"
 "http://www.w3.org/Graphics/SVG/1.1/DTD/svg11.dtd">
<!-- Generated by graphviz version 2.43.0 (0)
 -->
<!-- Title: include/meltpooldg/flow/darcy_damping_model.hpp Pages: 1 -->
<!--zoomable 269 -->

<svg id="main" version="1.1" xmlns="http://www.w3.org/2000/svg" xmlns:xlink="http://www.w3.org/1999/xlink" xml:space="preserve" onload="init(evt)">
<style type="text/css"><![CDATA[
.node, .edge {opacity: 0.7;}
.node.selected, .edge.selected {opacity: 1;}
.edge:hover path { stroke: red; }
.edge:hover polygon { stroke: red; fill: red; }
]]></style>

<defs>
  <circle id="rim" cx="0" cy="0" r="7"/>
  <circle id="rim2" cx="0" cy="0" r="3.5"/>
  <g id="zoomPlus">
    <use xlink:href="#rim" fill="#404040"><set attributeName="fill" to="#808080" begin="zoomplus.mouseover" end="zoomplus.mouseout"/></use>
    <path d="M-4,0h8M0,-4v8" fill="none" stroke="white" stroke-width="1.5" pointer-events="none"/>
  </g>
  <g id="zoomMin">
    <use xlink:href="#rim" fill="#404040"><set attributeName="fill" to="#808080" begin="zoomminus.mouseover" end="zoomminus.mouseout"/></use>
    <path d="M-4,0h8" fill="none" stroke="white" stroke-width="1.5" pointer-events="none"/>
  </g>
  <g id="arrowUp" transform="translate(30 24)">
    <use xlink:href="#rim"/>
    <path pointer-events="none" fill="none" stroke="white" stroke-width="1.5" d="M0,-3.0v7 M-2.5,-0.5L0,-3.0L2.5,-0.5"/>
  </g>
  <g id="arrowRight" transform="rotate(90) translate(36 -43)">
    <use xlink:href="#rim"/>
    <path pointer-events="none" fill="none" stroke="white" stroke-width="1.5" d="M0,-3.0v7 M-2.5,-0.5L0,-3.0L2.5,-0.5"/>
  </g>
  <g id="arrowDown" transform="rotate(180) translate(-30 -48)">
    <use xlink:href="#rim"/>
    <path pointer-events="none" fill="none" stroke="white" stroke-width="1.5" d="M0,-3.0v7 M-2.5,-0.5L0,-3.0L2.5,-0.5"/>
  </g>
  <g id="arrowLeft" transform="rotate(270) translate(-36 17)">
    <use xlink:href="#rim"/>
    <path pointer-events="none" fill="none" stroke="white" stroke-width="1.5" d="M0,-3.0v7 M-2.5,-0.5L0,-3.0L2.5,-0.5"/>
  </g>
  <g id="resetDef">
    <use xlink:href="#rim2" fill="#404040"><set attributeName="fill" to="#808080" begin="reset.mouseover" end="reset.mouseout"/></use>
  </g>
</defs>
<script type="application/ecmascript">
var viewWidth = 776;
var viewHeight = 269;
var sectionId = 'dynsection-1';
</script>
<script type="application/ecmascript" xlink:href="svg.min.js"/>
<svg id="graph" class="graph">
<g id="viewport">
<title>include/meltpooldg/flow/darcy_damping_model.hpp</title>
<!-- Node1 -->
<g id="Node000001" class="node">
<title>Node1</title>
<g id="a_Node000001"><a xlink:title=" ">
<polygon fill="#999999" stroke="#666666" points="572,-261 454,-261 454,-220 572,-220 572,-261"/>
<text text-anchor="start" x="462" y="-249" font-family="Helvetica,sans-Serif" font-size="10.00">include/meltpooldg</text>
<text text-anchor="start" x="462" y="-238" font-family="Helvetica,sans-Serif" font-size="10.00">/flow/darcy_damping</text>
<text text-anchor="middle" x="513" y="-227" font-family="Helvetica,sans-Serif" font-size="10.00">_model.hpp</text>
</a>
</g>
</g>
<!-- Node2 -->
<g id="Node000002" class="node">
<title>Node2</title>
<g id="a_Node000002"><a xlink:href="multiphase__operator_8hpp.html" target="_top" xlink:title=" ">
<polygon fill="white" stroke="#666666" points="354,-184 186,-184 186,-143 354,-143 354,-184"/>
<text text-anchor="start" x="194" y="-172" font-family="Helvetica,sans-Serif" font-size="10.00">include/meltpooldg</text>
<text text-anchor="start" x="194" y="-161" font-family="Helvetica,sans-Serif" font-size="10.00">/compressible_flow/multiphase</text>
<text text-anchor="middle" x="270" y="-150" font-family="Helvetica,sans-Serif" font-size="10.00">_operator.hpp</text>
</a>
</g>
</g>
<!-- Node1&#45;&gt;Node2 -->
<g id="edge1_Node000001_Node000002" class="edge">
<title>Node1&#45;&gt;Node2</title>
<g id="a_edge1_Node000001_Node000002"><a xlink:title=" ">
<path fill="none" stroke="#63b8ff" d="M444.23,-218.28C409.36,-207.51 367.29,-194.53 333.23,-184.02"/>
<polygon fill="#63b8ff" stroke="#63b8ff" points="443.28,-221.64 453.87,-221.25 445.34,-214.96 443.28,-221.64"/>
</a>
</g>
</g>
<!-- Node6 -->
<g id="Node000006" class="node">
<title>Node6</title>
<g id="a_Node000006"><a xlink:href="darcy__damping__operation_8hpp.html" target="_top" xlink:title=" ">
<polygon fill="white" stroke="#666666" points="572,-184 454,-184 454,-143 572,-143 572,-184"/>
<text text-anchor="start" x="462" y="-172" font-family="Helvetica,sans-Serif" font-size="10.00">include/meltpooldg</text>
<text text-anchor="start" x="462" y="-161" font-family="Helvetica,sans-Serif" font-size="10.00">/flow/darcy_damping</text>
<text text-anchor="middle" x="513" y="-150" font-family="Helvetica,sans-Serif" font-size="10.00">_operation.hpp</text>
</a>
</g>
</g>
<!-- Node1&#45;&gt;Node6 -->
<g id="edge7_Node000001_Node000006" class="edge">
<title>Node1&#45;&gt;Node6</title>
<g id="a_edge7_Node000001_Node000006"><a xlink:title=" ">
<path fill="none" stroke="#63b8ff" d="M513,-209.69C513,-201.08 513,-191.9 513,-184.07"/>
<polygon fill="#63b8ff" stroke="#63b8ff" points="509.5,-209.79 513,-219.79 516.5,-209.79 509.5,-209.79"/>
</a>
</g>
</g>
<!-- Node10 -->
<g id="Node000010" class="node">
<title>Node10</title>
<g id="a_Node000010"><a xlink:href="darcy__damping__model_8cpp.html" target="_top" xlink:title=" ">
<polygon fill="white" stroke="#666666" points="740,-178.5 590,-178.5 590,-148.5 740,-148.5 740,-178.5"/>
<text text-anchor="start" x="598" y="-166.5" font-family="Helvetica,sans-Serif" font-size="10.00">source/flow/darcy_damping</text>
<text text-anchor="middle" x="665" y="-155.5" font-family="Helvetica,sans-Serif" font-size="10.00">_model.cpp</text>
</a>
</g>
</g>
<!-- Node1&#45;&gt;Node10 -->
<g id="edge11_Node000001_Node000010" class="edge">
<title>Node1&#45;&gt;Node10</title>
<g id="a_edge11_Node000001_Node000010"><a xlink:title=" ">
<path fill="none" stroke="#63b8ff" d="M561.71,-215.46C586.28,-203.34 615.23,-189.06 636.22,-178.7"/>
<polygon fill="#63b8ff" stroke="#63b8ff" points="559.96,-212.43 552.54,-219.99 563.06,-218.7 559.96,-212.43"/>
</a>
</g>
</g>
<!-- Node3 -->
<g id="Node000003" class="node">
<title>Node3</title>
<g id="a_Node000003"><a xlink:href="multiphase__operation_8hpp.html" target="_top" xlink:title=" ">
<polygon fill="white" stroke="#666666" points="168,-107 0,-107 0,-66 168,-66 168,-107"/>
<text text-anchor="start" x="8" y="-95" font-family="Helvetica,sans-Serif" font-size="10.00">include/meltpooldg</text>
<text text-anchor="start" x="8" y="-84" font-family="Helvetica,sans-Serif" font-size="10.00">/compressible_flow/multiphase</text>
<text text-anchor="middle" x="84" y="-73" font-family="Helvetica,sans-Serif" font-size="10.00">_operation.hpp</text>
</a>
</g>
</g>
<!-- Node2&#45;&gt;Node3 -->
<g id="edge2_Node000002_Node000003" class="edge">
<title>Node2&#45;&gt;Node3</title>
<g id="a_edge2_Node000002_Node000003"><a xlink:title=" ">
<path fill="none" stroke="#63b8ff" d="M212.05,-139.13C186.5,-128.83 156.81,-116.86 132.46,-107.04"/>
<polygon fill="#63b8ff" stroke="#63b8ff" points="211.03,-142.5 221.62,-142.99 213.65,-136 211.03,-142.5"/>
</a>
</g>
</g>
<!-- Node4 -->
<g id="Node000004" class="node">
<title>Node4</title>
<g id="a_Node000004"><a xlink:href="multiphase__operation_8cpp.html" target="_top" xlink:title=" ">
<polygon fill="white" stroke="#666666" points="235,-30 63,-30 63,0 235,0 235,-30"/>
<text text-anchor="start" x="71" y="-18" font-family="Helvetica,sans-Serif" font-size="10.00">source/compressible</text>
<text text-anchor="middle" x="149" y="-7" font-family="Helvetica,sans-Serif" font-size="10.00">_flow/multiphase_operation.cpp</text>
</a>
</g>
</g>
<!-- Node2&#45;&gt;Node4 -->
<g id="edge5_Node000002_Node000004" class="edge">
<title>Node2&#45;&gt;Node4</title>
<g id="a_edge5_Node000002_Node000004"><a xlink:title=" ">
<path fill="none" stroke="#63b8ff" d="M249.38,-134.72C234.63,-115.17 214.1,-88.58 195,-66 184.49,-53.57 171.94,-40.01 162.61,-30.16"/>
<polygon fill="#63b8ff" stroke="#63b8ff" points="246.72,-137.01 255.52,-142.9 252.31,-132.8 246.72,-137.01"/>
</a>
</g>
</g>
<!-- Node5 -->
<g id="Node000005" class="node">
<title>Node5</title>
<g id="a_Node000005"><a xlink:href="multiphase__operator_8cpp.html" target="_top" xlink:title=" ">
<polygon fill="white" stroke="#666666" points="408,-101.5 242,-101.5 242,-71.5 408,-71.5 408,-101.5"/>
<text text-anchor="start" x="250" y="-89.5" font-family="Helvetica,sans-Serif" font-size="10.00">source/compressible</text>
<text text-anchor="middle" x="325" y="-78.5" font-family="Helvetica,sans-Serif" font-size="10.00">_flow/multiphase_operator.cpp</text>
</a>
</g>
</g>
<!-- Node2&#45;&gt;Node5 -->
<g id="edge6_Node000002_Node000005" class="edge">
<title>Node2&#45;&gt;Node5</title>
<g id="a_edge6_Node000002_Node000005"><a xlink:title=" ">
<path fill="none" stroke="#63b8ff" d="M290.47,-134.59C298.63,-123.46 307.68,-111.12 314.47,-101.86"/>
<polygon fill="#63b8ff" stroke="#63b8ff" points="287.54,-132.66 284.45,-142.79 293.19,-136.8 287.54,-132.66"/>
</a>
</g>
</g>
<!-- Node3&#45;&gt;Node3 -->
<g id="edge3_Node000003_Node000003" class="edge">
<title>Node3&#45;&gt;Node3</title>
<g id="a_edge3_Node000003_Node000003"><a xlink:title=" ">
<path fill="none" stroke="#63b8ff" d="M177.75,-95.29C182.92,-93.15 186,-90.22 186,-86.5 186,-80.83 178.85,-76.99 168.03,-75"/>
<polygon fill="#63b8ff" stroke="#63b8ff" points="176.72,-91.95 168.03,-98 178.6,-98.69 176.72,-91.95"/>
</a>
</g>
</g>
<!-- Node3&#45;&gt;Node4 -->
<g id="edge4_Node000003_Node000004" class="edge">
<title>Node3&#45;&gt;Node4</title>
<g id="a_edge4_Node000003_Node000004"><a xlink:title=" ">
<path fill="none" stroke="#63b8ff" d="M109.47,-58.26C118.5,-48.61 128.29,-38.14 135.87,-30.04"/>
<polygon fill="#63b8ff" stroke="#63b8ff" points="106.73,-56.08 102.45,-65.77 111.84,-60.86 106.73,-56.08"/>
</a>
</g>
</g>
<!-- Node7 -->
<g id="Node000007" class="node">
<title>Node7</title>
<g id="a_Node000007"><a xlink:href="melt__pool__application_8hpp.html" target="_top" xlink:title=" ">
<polygon fill="white" stroke="#666666" points="599.5,-101.5 426.5,-101.5 426.5,-71.5 599.5,-71.5 599.5,-101.5"/>
<text text-anchor="start" x="434.5" y="-89.5" font-family="Helvetica,sans-Serif" font-size="10.00">applications/mp&#45;melt</text>
<text text-anchor="middle" x="513" y="-78.5" font-family="Helvetica,sans-Serif" font-size="10.00">&#45;pool/melt_pool_application.hpp</text>
</a>
</g>
</g>
<!-- Node6&#45;&gt;Node7 -->
<g id="edge8_Node000006_Node000007" class="edge">
<title>Node6&#45;&gt;Node7</title>
<g id="a_edge8_Node000006_Node000007"><a xlink:title=" ">
<path fill="none" stroke="#63b8ff" d="M513,-132.61C513,-122.01 513,-110.57 513,-101.86"/>
<polygon fill="#63b8ff" stroke="#63b8ff" points="509.5,-132.79 513,-142.79 516.5,-132.79 509.5,-132.79"/>
</a>
</g>
</g>
<!-- Node9 -->
<g id="Node000009" class="node">
<title>Node9</title>
<g id="a_Node000009"><a xlink:href="darcy__damping__operation_8cpp.html" target="_top" xlink:title=" ">
<polygon fill="white" stroke="#666666" points="768,-101.5 618,-101.5 618,-71.5 768,-71.5 768,-101.5"/>
<text text-anchor="start" x="626" y="-89.5" font-family="Helvetica,sans-Serif" font-size="10.00">source/flow/darcy_damping</text>
<text text-anchor="middle" x="693" y="-78.5" font-family="Helvetica,sans-Serif" font-size="10.00">_operation.cpp</text>
</a>
</g>
</g>
<!-- Node6&#45;&gt;Node9 -->
<g id="edge10_Node000006_Node000009" class="edge">
<title>Node6&#45;&gt;Node9</title>
<g id="a_edge10_Node000006_Node000009"><a xlink:title=" ">
<path fill="none" stroke="#63b8ff" d="M569.19,-139.09C598.7,-126.79 633.89,-112.13 659.2,-101.58"/>
<polygon fill="#63b8ff" stroke="#63b8ff" points="567.71,-135.91 559.82,-142.99 570.4,-142.37 567.71,-135.91"/>
</a>
</g>
</g>
<!-- Node8 -->
<g id="Node000008" class="node">
<title>Node8</title>
<g id="a_Node000008"><a xlink:href="melt__pool__application_8cpp.html" target="_top" xlink:title=" ">
<polygon fill="white" stroke="#666666" points="599.5,-30 426.5,-30 426.5,0 599.5,0 599.5,-30"/>
<text text-anchor="start" x="434.5" y="-18" font-family="Helvetica,sans-Serif" font-size="10.00">applications/mp&#45;melt</text>
<text text-anchor="middle" x="513" y="-7" font-family="Helvetica,sans-Serif" font-size="10.00">&#45;pool/melt_pool_application.cpp</text>
</a>
</g>
</g>
<!-- Node7&#45;&gt;Node8 -->
<g id="edge9_Node000007_Node000008" class="edge">
<title>Node7&#45;&gt;Node8</title>
<g id="a_edge9_Node000007_Node000008"><a xlink:title=" ">
<path fill="none" stroke="#63b8ff" d="M513,-61.25C513,-50.81 513,-38.99 513,-30.04"/>
<polygon fill="#63b8ff" stroke="#63b8ff" points="509.5,-61.44 513,-71.44 516.5,-61.44 509.5,-61.44"/>
</a>
</g>
</g>
</g>
</svg>

<g id="navigator" transform="translate(0 0)" fill="#404254">
  <rect fill="#f2f5e9" fill-opacity="0.5" stroke="#606060" stroke-width=".5" x="0" y="0" width="60" height="60"/>
  <use id="zoomplus" xlink:href="#zoomPlus" x="17" y="9" onmousedown="handleZoom(evt,'in')"/>
  <use id="zoomminus" xlink:href="#zoomMin" x="42" y="9" onmousedown="handleZoom(evt,'out')"/>
  <use id="reset" xlink:href="#resetDef" x="30" y="36" onmousedown="handleReset()"/>
   <use id="arrowup" xlink:href="#arrowUp" x="0" y="0" onmousedown="handlePan(0,-1)"/>
  <use id="arrowright" xlink:href="#arrowRight" x="0" y="0" onmousedown="handlePan(1,0)"/>
  <use id="arrowdown" xlink:href="#arrowDown" x="0" y="0" onmousedown="handlePan(0,1)"/>
  <use id="arrowleft" xlink:href="#arrowLeft" x="0" y="0" onmousedown="handlePan(-1,0)"/>
</g>
<svg viewBox="0 0 15 15" width="100%" height="30px" preserveAspectRatio="xMaxYMin meet">
 <g id="arrow_out" transform="scale(0.3 0.3)">
  <a xlink:href="darcy__damping__model_8hpp__dep__incl_org.svg" target="_base">
   <rect id="button" ry="5" rx="5" y="6" x="6" height="38" width="38"
        fill="#f2f5e9" fill-opacity="0.5" stroke="#606060" stroke-width="1.0"/>
   <path id="arrow"
     d="M 11.500037,31.436501 C 11.940474,20.09759 22.043105,11.32322 32.158766,21.979434 L 37.068811,17.246167 C 37.068811,17.246167 37.088388,32 37.088388,32 L 22.160133,31.978069 C 22.160133,31.978069 26.997745,27.140456 26.997745,27.140456 C 18.528582,18.264221 13.291696,25.230495 11.500037,31.436501 z"
     style="fill:#404040;"/>
  </a>
 </g>
</svg>

<style type='text/css'>
<![CDATA[
[data-mouse-over-selected='false'] { opacity: 0.7; }
[data-mouse-over-selected='true']  { opacity: 1.0; }
]]>
</style>
<script type="application/ecmascript"><![CDATA[
document.addEventListener('DOMContentLoaded', (event) => {
  highlightEdges();
  highlightAdjacentNodes();
});
]]></script>
</svg>
