<?xml version="1.0" encoding="UTF-8" standalone="no"?>
<!DOCTYPE svg PUBLIC "-//W3C//DTD SVG 1.1//EN"
 "http://www.w3.org/Graphics/SVG/1.1/DTD/svg11.dtd">
<!-- Generated by graphviz version 2.43.0 (0)
 -->
<!-- Title: include/meltpooldg Pages: 1 -->
<svg width="570pt" height="534pt"
 viewBox="0.00 0.00 570.00 534.00" xmlns="http://www.w3.org/2000/svg" xmlns:xlink="http://www.w3.org/1999/xlink">
<g id="graph0" class="graph" transform="scale(1 1) rotate(0) translate(4 530)">
<title>include/meltpooldg</title>
<g id="clust1" class="cluster">
<title>clusterdir_d44c64559bbebec7f509842c48db8b23</title>
<g id="a_clust1"><a xlink:href="dir_d44c64559bbebec7f509842c48db8b23.html" target="_top" xlink:title="include">
<polygon fill="#edf0f7" stroke="#404040" stroke-dasharray="5,2" points="8,-8 8,-518 554,-518 554,-8 8,-8"/>
<text text-anchor="middle" x="281" y="-506" font-family="Helvetica,sans-Serif" font-size="10.00">include</text>
</a>
</g>
</g>
<g id="clust2" class="cluster">
<title>clusterdir_8f99bfadfdcbaa65d0da694c66c754ed</title>
<g id="a_clust2"><a xlink:href="dir_8f99bfadfdcbaa65d0da694c66c754ed.html" target="_top">
<polygon fill="#edf0f7" stroke="#404040" stroke-width="2" points="16,-16 16,-491 546,-491 546,-16 16,-16"/>
</a>
</g>
</g>
<!-- dir_8f99bfadfdcbaa65d0da694c66c754ed -->
<g id="node1" class="node">
<title>dir_8f99bfadfdcbaa65d0da694c66c754ed</title>
<text text-anchor="middle" x="468" y="-471" font-family="Helvetica,sans-Serif" font-size="10.00">meltpooldg</text>
</g>
<!-- dir_fe928e0a3314c1b06e0294715d23dc51 -->
<g id="node2" class="node">
<title>dir_fe928e0a3314c1b06e0294715d23dc51</title>
<g id="a_node2"><a xlink:href="dir_fe928e0a3314c1b06e0294715d23dc51.html" target="_top" xlink:title="core">
<polygon fill="#a2b4d6" stroke="#404040" points="274,-318 236,-318 236,-299 274,-299 274,-318"/>
<text text-anchor="middle" x="255" y="-306" font-family="Helvetica,sans-Serif" font-size="10.00">core</text>
</a>
</g>
</g>
<!-- dir_3d83c62cc94644fc7d3192423a0d8c24 -->
<g id="node3" class="node">
<title>dir_3d83c62cc94644fc7d3192423a0d8c24</title>
<g id="a_node3"><a xlink:href="dir_3d83c62cc94644fc7d3192423a0d8c24.html" target="_top" xlink:title="cut">
<polygon fill="#a2b4d6" stroke="#404040" points="158,-263 126,-263 126,-244 158,-244 158,-263"/>
<text text-anchor="middle" x="142" y="-251" font-family="Helvetica,sans-Serif" font-size="10.00">cut</text>
</a>
</g>
</g>
<!-- dir_fe928e0a3314c1b06e0294715d23dc51&#45;&gt;dir_3d83c62cc94644fc7d3192423a0d8c24 -->
<g id="edge3" class="edge">
<title>dir_fe928e0a3314c1b06e0294715d23dc51&#45;&gt;dir_3d83c62cc94644fc7d3192423a0d8c24</title>
<g id="a_edge3"><a xlink:href="dir_000010_000012.html" target="_top">
<path fill="none" stroke="#63b8ff" d="M236.84,-298.98C218.1,-290.19 188.7,-276.4 167.6,-266.51"/>
<polygon fill="#63b8ff" stroke="#63b8ff" points="168.82,-263.21 158.28,-262.13 165.84,-269.55 168.82,-263.21"/>
</a>
</g>
<g id="a_edge3&#45;headlabel"><a xlink:href="dir_000010_000012.html" target="_top" xlink:title="1">
<text text-anchor="middle" x="173.28" y="-259.67" font-family="Helvetica,sans-Serif" font-size="10.00" fill="#63b8ff">1</text>
</a>
</g>
</g>
<!-- dir_d8c980f69678bb74c2eb96a617637411 -->
<g id="node7" class="node">
<title>dir_d8c980f69678bb74c2eb96a617637411</title>
<g id="a_node7"><a xlink:href="dir_d8c980f69678bb74c2eb96a617637411.html" target="_top" xlink:title="level_set">
<polygon fill="#a2b4d6" stroke="#404040" points="377.5,-263 316.5,-263 316.5,-244 377.5,-244 377.5,-263"/>
<text text-anchor="middle" x="347" y="-251" font-family="Helvetica,sans-Serif" font-size="10.00">level_set</text>
</a>
</g>
</g>
<!-- dir_fe928e0a3314c1b06e0294715d23dc51&#45;&gt;dir_d8c980f69678bb74c2eb96a617637411 -->
<g id="edge4" class="edge">
<title>dir_fe928e0a3314c1b06e0294715d23dc51&#45;&gt;dir_d8c980f69678bb74c2eb96a617637411</title>
<g id="a_edge4"><a xlink:href="dir_000010_000025.html" target="_top">
<path fill="none" stroke="#63b8ff" d="M264.67,-298.98C277.35,-290.61 299.48,-277.7 317.7,-267.95"/>
<polygon fill="#63b8ff" stroke="#63b8ff" points="319.57,-270.92 326.8,-263.17 316.32,-264.72 319.57,-270.92"/>
</a>
</g>
<g id="a_edge4&#45;headlabel"><a xlink:href="dir_000010_000025.html" target="_top" xlink:title="1">
<text text-anchor="middle" x="317.71" y="-272.6" font-family="Helvetica,sans-Serif" font-size="10.00" fill="#63b8ff">1</text>
</a>
</g>
</g>
<!-- dir_270e08c14b917b5512a0af8e51711095 -->
<g id="node11" class="node">
<title>dir_270e08c14b917b5512a0af8e51711095</title>
<g id="a_node11"><a xlink:href="dir_270e08c14b917b5512a0af8e51711095.html" target="_top" xlink:title="post_processing">
<polygon fill="#a2b4d6" stroke="#404040" points="417.5,-208 322.5,-208 322.5,-189 417.5,-189 417.5,-208"/>
<text text-anchor="middle" x="370" y="-196" font-family="Helvetica,sans-Serif" font-size="10.00">post_processing</text>
</a>
</g>
</g>
<!-- dir_fe928e0a3314c1b06e0294715d23dc51&#45;&gt;dir_270e08c14b917b5512a0af8e51711095 -->
<g id="edge1" class="edge">
<title>dir_fe928e0a3314c1b06e0294715d23dc51&#45;&gt;dir_270e08c14b917b5512a0af8e51711095</title>
<g id="a_edge1"><a xlink:href="dir_000010_000046.html" target="_top">
<path fill="none" stroke="#63b8ff" d="M261.23,-298.69C270.56,-285.84 289.07,-261.6 308,-244 320.06,-232.79 335.03,-221.97 347.24,-213.81"/>
<polygon fill="#63b8ff" stroke="#63b8ff" points="349.48,-216.52 355.94,-208.12 345.65,-210.66 349.48,-216.52"/>
</a>
</g>
<g id="a_edge1&#45;headlabel"><a xlink:href="dir_000010_000046.html" target="_top" xlink:title="1">
<text text-anchor="middle" x="348.03" y="-218.37" font-family="Helvetica,sans-Serif" font-size="10.00" fill="#63b8ff">1</text>
</a>
</g>
</g>
<!-- dir_33f297a483115a9e2addf470c6b064fb -->
<g id="node14" class="node">
<title>dir_33f297a483115a9e2addf470c6b064fb</title>
<g id="a_node14"><a xlink:href="dir_33f297a483115a9e2addf470c6b064fb.html" target="_top" xlink:title="utilities">
<polygon fill="#a2b4d6" stroke="#404040" points="243.5,-153 190.5,-153 190.5,-134 243.5,-134 243.5,-153"/>
<text text-anchor="middle" x="217" y="-141" font-family="Helvetica,sans-Serif" font-size="10.00">utilities</text>
</a>
</g>
</g>
<!-- dir_fe928e0a3314c1b06e0294715d23dc51&#45;&gt;dir_33f297a483115a9e2addf470c6b064fb -->
<g id="edge2" class="edge">
<title>dir_fe928e0a3314c1b06e0294715d23dc51&#45;&gt;dir_33f297a483115a9e2addf470c6b064fb</title>
<g id="a_edge2"><a xlink:href="dir_000010_000069.html" target="_top">
<path fill="none" stroke="#63b8ff" d="M249.69,-298.74C239.59,-273.31 221.86,-199.08 216.93,-163.69"/>
<polygon fill="#63b8ff" stroke="#63b8ff" points="220.36,-162.86 215.78,-153.31 213.41,-163.63 220.36,-162.86"/>
</a>
</g>
<g id="a_edge2&#45;headlabel"><a xlink:href="dir_000010_000069.html" target="_top" xlink:title="10">
<text text-anchor="middle" x="223.58" y="-163.62" font-family="Helvetica,sans-Serif" font-size="10.00" fill="#63b8ff">10</text>
</a>
</g>
</g>
<!-- dir_3d83c62cc94644fc7d3192423a0d8c24&#45;&gt;dir_33f297a483115a9e2addf470c6b064fb -->
<g id="edge5" class="edge">
<title>dir_3d83c62cc94644fc7d3192423a0d8c24&#45;&gt;dir_33f297a483115a9e2addf470c6b064fb</title>
<g id="a_edge5"><a xlink:href="dir_000012_000069.html" target="_top">
<path fill="none" stroke="#63b8ff" d="M146.14,-243.95C152.36,-231.43 164.79,-207.6 178,-189 185.05,-179.08 193.93,-168.8 201.43,-160.63"/>
<polygon fill="#63b8ff" stroke="#63b8ff" points="204.07,-162.94 208.36,-153.25 198.97,-158.15 204.07,-162.94"/>
</a>
</g>
<g id="a_edge5&#45;headlabel"><a xlink:href="dir_000012_000069.html" target="_top" xlink:title="7">
<text text-anchor="middle" x="203.68" y="-165" font-family="Helvetica,sans-Serif" font-size="10.00" fill="#63b8ff">7</text>
</a>
</g>
</g>
<!-- dir_e71d216056fb13ff2a67c48841417c25 -->
<g id="node4" class="node">
<title>dir_e71d216056fb13ff2a67c48841417c25</title>
<g id="a_node4"><a xlink:href="dir_e71d216056fb13ff2a67c48841417c25.html" target="_top" xlink:title="flow">
<polygon fill="#a2b4d6" stroke="#404040" points="196.5,-373 159.5,-373 159.5,-354 196.5,-354 196.5,-373"/>
<text text-anchor="middle" x="178" y="-361" font-family="Helvetica,sans-Serif" font-size="10.00">flow</text>
</a>
</g>
</g>
<!-- dir_e71d216056fb13ff2a67c48841417c25&#45;&gt;dir_fe928e0a3314c1b06e0294715d23dc51 -->
<g id="edge11" class="edge">
<title>dir_e71d216056fb13ff2a67c48841417c25&#45;&gt;dir_fe928e0a3314c1b06e0294715d23dc51</title>
<g id="a_edge11"><a xlink:href="dir_000017_000010.html" target="_top">
<path fill="none" stroke="#63b8ff" d="M190.37,-353.98C202.09,-345.92 219.92,-333.65 233.89,-324.03"/>
<polygon fill="#63b8ff" stroke="#63b8ff" points="236.15,-326.72 242.4,-318.17 232.18,-320.96 236.15,-326.72"/>
</a>
</g>
<g id="a_edge11&#45;headlabel"><a xlink:href="dir_000017_000010.html" target="_top" xlink:title="17">
<text text-anchor="middle" x="234.8" y="-328.6" font-family="Helvetica,sans-Serif" font-size="10.00" fill="#63b8ff">17</text>
</a>
</g>
</g>
<!-- dir_e71d216056fb13ff2a67c48841417c25&#45;&gt;dir_3d83c62cc94644fc7d3192423a0d8c24 -->
<g id="edge8" class="edge">
<title>dir_e71d216056fb13ff2a67c48841417c25&#45;&gt;dir_3d83c62cc94644fc7d3192423a0d8c24</title>
<g id="a_edge8"><a xlink:href="dir_000017_000012.html" target="_top">
<path fill="none" stroke="#63b8ff" d="M175.05,-353.66C169.2,-336.09 155.98,-296.45 148.15,-272.95"/>
<polygon fill="#63b8ff" stroke="#63b8ff" points="151.37,-271.54 144.89,-263.16 144.73,-273.75 151.37,-271.54"/>
</a>
</g>
<g id="a_edge8&#45;headlabel"><a xlink:href="dir_000017_000012.html" target="_top" xlink:title="7">
<text text-anchor="middle" x="155.2" y="-271.55" font-family="Helvetica,sans-Serif" font-size="10.00" fill="#63b8ff">7</text>
</a>
</g>
</g>
<!-- dir_e71d216056fb13ff2a67c48841417c25&#45;&gt;dir_d8c980f69678bb74c2eb96a617637411 -->
<g id="edge9" class="edge">
<title>dir_e71d216056fb13ff2a67c48841417c25&#45;&gt;dir_d8c980f69678bb74c2eb96a617637411</title>
<g id="a_edge9"><a xlink:href="dir_000017_000025.html" target="_top">
<path fill="none" stroke="#63b8ff" d="M196.51,-357.04C218.36,-350.07 255.22,-336.65 283,-318 302.59,-304.85 321.29,-285.18 333.37,-271.21"/>
<polygon fill="#63b8ff" stroke="#63b8ff" points="336.21,-273.27 339.98,-263.37 330.86,-268.76 336.21,-273.27"/>
</a>
</g>
<g id="a_edge9&#45;headlabel"><a xlink:href="dir_000017_000025.html" target="_top" xlink:title="2">
<text text-anchor="middle" x="336.07" y="-275.35" font-family="Helvetica,sans-Serif" font-size="10.00" fill="#63b8ff">2</text>
</a>
</g>
</g>
<!-- dir_e71d216056fb13ff2a67c48841417c25&#45;&gt;dir_270e08c14b917b5512a0af8e51711095 -->
<g id="edge6" class="edge">
<title>dir_e71d216056fb13ff2a67c48841417c25&#45;&gt;dir_270e08c14b917b5512a0af8e51711095</title>
<g id="a_edge6"><a xlink:href="dir_000017_000046.html" target="_top">
<path fill="none" stroke="#63b8ff" d="M183.93,-353.93C192.75,-341.4 210.12,-317.53 227,-299 251.14,-272.5 256.8,-264.79 286,-244 303.31,-231.68 324.45,-220.49 341.19,-212.42"/>
<polygon fill="#63b8ff" stroke="#63b8ff" points="342.93,-215.47 350.48,-208.04 339.94,-209.14 342.93,-215.47"/>
</a>
</g>
<g id="a_edge6&#45;headlabel"><a xlink:href="dir_000017_000046.html" target="_top" xlink:title="4">
<text text-anchor="middle" x="340.89" y="-217.07" font-family="Helvetica,sans-Serif" font-size="10.00" fill="#63b8ff">4</text>
</a>
</g>
</g>
<!-- dir_e210c3716260b17f672da194eece00e5 -->
<g id="node13" class="node">
<title>dir_e210c3716260b17f672da194eece00e5</title>
<g id="a_node13"><a xlink:href="dir_e210c3716260b17f672da194eece00e5.html" target="_top" xlink:title="time_integration">
<polygon fill="#a2b4d6" stroke="#404040" points="380,-98 282,-98 282,-79 380,-79 380,-98"/>
<text text-anchor="middle" x="331" y="-86" font-family="Helvetica,sans-Serif" font-size="10.00">time_integration</text>
</a>
</g>
</g>
<!-- dir_e71d216056fb13ff2a67c48841417c25&#45;&gt;dir_e210c3716260b17f672da194eece00e5 -->
<g id="edge10" class="edge">
<title>dir_e71d216056fb13ff2a67c48841417c25&#45;&gt;dir_e210c3716260b17f672da194eece00e5</title>
<g id="a_edge10"><a xlink:href="dir_000017_000058.html" target="_top">
<path fill="none" stroke="#63b8ff" d="M168.16,-353.81C148.02,-334.91 104.92,-288.19 117,-244 131.97,-189.22 137.27,-168.98 182,-134 207.68,-113.92 242.29,-102.88 271.69,-96.82"/>
<polygon fill="#63b8ff" stroke="#63b8ff" points="272.68,-100.2 281.85,-94.88 271.37,-93.32 272.68,-100.2"/>
</a>
</g>
<g id="a_edge10&#45;headlabel"><a xlink:href="dir_000017_000058.html" target="_top" xlink:title="14">
<text text-anchor="middle" x="269.68" y="-101.16" font-family="Helvetica,sans-Serif" font-size="10.00" fill="#63b8ff">14</text>
</a>
</g>
</g>
<!-- dir_e71d216056fb13ff2a67c48841417c25&#45;&gt;dir_33f297a483115a9e2addf470c6b064fb -->
<g id="edge7" class="edge">
<title>dir_e71d216056fb13ff2a67c48841417c25&#45;&gt;dir_33f297a483115a9e2addf470c6b064fb</title>
<g id="a_edge7"><a xlink:href="dir_000017_000069.html" target="_top">
<path fill="none" stroke="#63b8ff" d="M178.12,-353.67C178.68,-327.87 181.68,-250.55 198,-189 200.42,-179.87 204.38,-170.17 208.07,-162.16"/>
<polygon fill="#63b8ff" stroke="#63b8ff" points="211.24,-163.63 212.44,-153.1 204.94,-160.58 211.24,-163.63"/>
</a>
</g>
<g id="a_edge7&#45;headlabel"><a xlink:href="dir_000017_000069.html" target="_top" xlink:title="14">
<text text-anchor="middle" x="212.24" y="-165.6" font-family="Helvetica,sans-Serif" font-size="10.00" fill="#63b8ff">14</text>
</a>
</g>
</g>
<!-- dir_181dbc04b0cb71942e1eaa5b395c05c0 -->
<g id="node5" class="node">
<title>dir_181dbc04b0cb71942e1eaa5b395c05c0</title>
<g id="a_node5"><a xlink:href="dir_181dbc04b0cb71942e1eaa5b395c05c0.html" target="_top" xlink:title="fluid_structure_interaction">
<polygon fill="#a2b4d6" stroke="#404040" points="198,-428 54,-428 54,-409 198,-409 198,-428"/>
<text text-anchor="middle" x="126" y="-416" font-family="Helvetica,sans-Serif" font-size="10.00">fluid_structure_interaction</text>
</a>
</g>
</g>
<!-- dir_181dbc04b0cb71942e1eaa5b395c05c0&#45;&gt;dir_e71d216056fb13ff2a67c48841417c25 -->
<g id="edge14" class="edge">
<title>dir_181dbc04b0cb71942e1eaa5b395c05c0&#45;&gt;dir_e71d216056fb13ff2a67c48841417c25</title>
<g id="a_edge14"><a xlink:href="dir_000020_000017.html" target="_top">
<path fill="none" stroke="#63b8ff" d="M134.59,-408.75C142.16,-401.03 153.38,-389.6 162.51,-380.28"/>
<polygon fill="#63b8ff" stroke="#63b8ff" points="165.07,-382.68 169.57,-373.09 160.07,-377.78 165.07,-382.68"/>
</a>
</g>
<g id="a_edge14&#45;headlabel"><a xlink:href="dir_000020_000017.html" target="_top" xlink:title="5">
<text text-anchor="middle" x="164.58" y="-384.73" font-family="Helvetica,sans-Serif" font-size="10.00" fill="#63b8ff">5</text>
</a>
</g>
</g>
<!-- dir_39446897a1438b7558941c3f21df2e43 -->
<g id="node9" class="node">
<title>dir_39446897a1438b7558941c3f21df2e43</title>
<g id="a_node9"><a xlink:href="dir_39446897a1438b7558941c3f21df2e43.html" target="_top" xlink:title="particles">
<polygon fill="#a2b4d6" stroke="#404040" points="83.5,-208 24.5,-208 24.5,-189 83.5,-189 83.5,-208"/>
<text text-anchor="middle" x="54" y="-196" font-family="Helvetica,sans-Serif" font-size="10.00">particles</text>
</a>
</g>
</g>
<!-- dir_181dbc04b0cb71942e1eaa5b395c05c0&#45;&gt;dir_39446897a1438b7558941c3f21df2e43 -->
<g id="edge13" class="edge">
<title>dir_181dbc04b0cb71942e1eaa5b395c05c0&#45;&gt;dir_39446897a1438b7558941c3f21df2e43</title>
<g id="a_edge13"><a xlink:href="dir_000020_000042.html" target="_top">
<path fill="none" stroke="#63b8ff" d="M113.82,-408.72C103.59,-400.65 89.48,-387.72 82,-373 55.8,-321.41 53.05,-251.04 53.39,-218.03"/>
<polygon fill="#63b8ff" stroke="#63b8ff" points="56.89,-218.08 53.6,-208 49.89,-217.93 56.89,-218.08"/>
</a>
</g>
<g id="a_edge13&#45;headlabel"><a xlink:href="dir_000020_000042.html" target="_top" xlink:title="5">
<text text-anchor="middle" x="59.65" y="-219.23" font-family="Helvetica,sans-Serif" font-size="10.00" fill="#63b8ff">5</text>
</a>
</g>
</g>
<!-- dir_181dbc04b0cb71942e1eaa5b395c05c0&#45;&gt;dir_33f297a483115a9e2addf470c6b064fb -->
<g id="edge12" class="edge">
<title>dir_181dbc04b0cb71942e1eaa5b395c05c0&#45;&gt;dir_33f297a483115a9e2addf470c6b064fb</title>
<g id="a_edge12"><a xlink:href="dir_000020_000069.html" target="_top">
<path fill="none" stroke="#63b8ff" d="M123.17,-408.84C117.75,-391.72 106.07,-352.23 102,-318 98.04,-284.68 101.79,-273.91 117,-244 135.51,-207.61 172.32,-176.42 195.74,-159.09"/>
<polygon fill="#63b8ff" stroke="#63b8ff" points="197.93,-161.83 204,-153.14 193.84,-156.15 197.93,-161.83"/>
</a>
</g>
<g id="a_edge12&#45;headlabel"><a xlink:href="dir_000020_000069.html" target="_top" xlink:title="2">
<text text-anchor="middle" x="196.67" y="-163.73" font-family="Helvetica,sans-Serif" font-size="10.00" fill="#63b8ff">2</text>
</a>
</g>
</g>
<!-- dir_8fea59914ed62cb03361854cdbc2abdc -->
<g id="node6" class="node">
<title>dir_8fea59914ed62cb03361854cdbc2abdc</title>
<g id="a_node6"><a xlink:href="dir_8fea59914ed62cb03361854cdbc2abdc.html" target="_top" xlink:title="heat">
<polygon fill="#a2b4d6" stroke="#404040" points="380,-483 342,-483 342,-464 380,-464 380,-483"/>
<text text-anchor="middle" x="361" y="-471" font-family="Helvetica,sans-Serif" font-size="10.00">heat</text>
</a>
</g>
</g>
<!-- dir_8fea59914ed62cb03361854cdbc2abdc&#45;&gt;dir_fe928e0a3314c1b06e0294715d23dc51 -->
<g id="edge23" class="edge">
<title>dir_8fea59914ed62cb03361854cdbc2abdc&#45;&gt;dir_fe928e0a3314c1b06e0294715d23dc51</title>
<g id="a_edge23"><a xlink:href="dir_000022_000010.html" target="_top">
<path fill="none" stroke="#63b8ff" d="M341.64,-471.32C315.11,-468.54 268.33,-459.23 247,-428 226.34,-397.76 238.2,-352.43 247.4,-327.52"/>
<polygon fill="#63b8ff" stroke="#63b8ff" points="250.67,-328.78 251.08,-318.19 244.15,-326.21 250.67,-328.78"/>
</a>
</g>
<g id="a_edge23&#45;headlabel"><a xlink:href="dir_000022_000010.html" target="_top" xlink:title="26">
<text text-anchor="middle" x="251.99" y="-330.66" font-family="Helvetica,sans-Serif" font-size="10.00" fill="#63b8ff">26</text>
</a>
</g>
</g>
<!-- dir_8fea59914ed62cb03361854cdbc2abdc&#45;&gt;dir_3d83c62cc94644fc7d3192423a0d8c24 -->
<g id="edge18" class="edge">
<title>dir_8fea59914ed62cb03361854cdbc2abdc&#45;&gt;dir_3d83c62cc94644fc7d3192423a0d8c24</title>
<g id="a_edge18"><a xlink:href="dir_000022_000012.html" target="_top">
<path fill="none" stroke="#63b8ff" d="M341.82,-467.57C316.35,-460.63 270.36,-446.7 234,-428 220.95,-421.29 219.17,-417.19 207,-409 182.45,-392.48 166.15,-398.41 151,-373 132.48,-341.94 135.1,-297.88 138.59,-273.16"/>
<polygon fill="#63b8ff" stroke="#63b8ff" points="142.1,-273.44 140.24,-263.01 135.19,-272.32 142.1,-273.44"/>
</a>
</g>
<g id="a_edge18&#45;headlabel"><a xlink:href="dir_000022_000012.html" target="_top" xlink:title="2">
<text text-anchor="middle" x="144.32" y="-274.94" font-family="Helvetica,sans-Serif" font-size="10.00" fill="#63b8ff">2</text>
</a>
</g>
</g>
<!-- dir_8fea59914ed62cb03361854cdbc2abdc&#45;&gt;dir_d8c980f69678bb74c2eb96a617637411 -->
<g id="edge20" class="edge">
<title>dir_8fea59914ed62cb03361854cdbc2abdc&#45;&gt;dir_d8c980f69678bb74c2eb96a617637411</title>
<g id="a_edge20"><a xlink:href="dir_000022_000025.html" target="_top">
<path fill="none" stroke="#63b8ff" d="M360.45,-463.95C358.4,-431.95 351.12,-318.68 348.21,-273.4"/>
<polygon fill="#63b8ff" stroke="#63b8ff" points="351.69,-272.98 347.56,-263.22 344.71,-273.43 351.69,-272.98"/>
</a>
</g>
<g id="a_edge20&#45;headlabel"><a xlink:href="dir_000022_000025.html" target="_top" xlink:title="9">
<text text-anchor="middle" x="354.76" y="-273.88" font-family="Helvetica,sans-Serif" font-size="10.00" fill="#63b8ff">9</text>
</a>
</g>
</g>
<!-- dir_7408abf3d1459402edeb1922a4712e77 -->
<g id="node8" class="node">
<title>dir_7408abf3d1459402edeb1922a4712e77</title>
<g id="a_node8"><a xlink:href="dir_7408abf3d1459402edeb1922a4712e77.html" target="_top" xlink:title="linear_algebra">
<polygon fill="#a2b4d6" stroke="#404040" points="374,-43 288,-43 288,-24 374,-24 374,-43"/>
<text text-anchor="middle" x="331" y="-31" font-family="Helvetica,sans-Serif" font-size="10.00">linear_algebra</text>
</a>
</g>
</g>
<!-- dir_8fea59914ed62cb03361854cdbc2abdc&#45;&gt;dir_7408abf3d1459402edeb1922a4712e77 -->
<g id="edge19" class="edge">
<title>dir_8fea59914ed62cb03361854cdbc2abdc&#45;&gt;dir_7408abf3d1459402edeb1922a4712e77</title>
<g id="a_edge19"><a xlink:href="dir_000022_000027.html" target="_top">
<path fill="none" stroke="#63b8ff" d="M380.17,-469.94C425.79,-462.67 537,-437.45 537,-364.5 537,-364.5 537,-364.5 537,-142.5 537,-73.6 445.48,-48.57 384.45,-39.53"/>
<polygon fill="#63b8ff" stroke="#63b8ff" points="384.57,-36.02 374.18,-38.12 383.61,-42.95 384.57,-36.02"/>
</a>
</g>
<g id="a_edge19&#45;headlabel"><a xlink:href="dir_000022_000027.html" target="_top" xlink:title="8">
<text text-anchor="middle" x="388.52" y="-31.19" font-family="Helvetica,sans-Serif" font-size="10.00" fill="#63b8ff">8</text>
</a>
</g>
</g>
<!-- dir_20597749ce1f45b6168fd991693c8c45 -->
<g id="node10" class="node">
<title>dir_20597749ce1f45b6168fd991693c8c45</title>
<g id="a_node10"><a xlink:href="dir_20597749ce1f45b6168fd991693c8c45.html" target="_top" xlink:title="phase_change">
<polygon fill="#a2b4d6" stroke="#404040" points="342,-428 256,-428 256,-409 342,-409 342,-428"/>
<text text-anchor="middle" x="299" y="-416" font-family="Helvetica,sans-Serif" font-size="10.00">phase_change</text>
</a>
</g>
</g>
<!-- dir_8fea59914ed62cb03361854cdbc2abdc&#45;&gt;dir_20597749ce1f45b6168fd991693c8c45 -->
<g id="edge15" class="edge">
<title>dir_8fea59914ed62cb03361854cdbc2abdc&#45;&gt;dir_20597749ce1f45b6168fd991693c8c45</title>
<g id="a_edge15"><a xlink:href="dir_000022_000044.html" target="_top">
<path fill="none" stroke="#63b8ff" d="M351.04,-463.98C341.87,-456.15 328.06,-444.34 316.97,-434.86"/>
<polygon fill="#63b8ff" stroke="#63b8ff" points="319.02,-432.01 309.14,-428.17 314.47,-437.33 319.02,-432.01"/>
</a>
</g>
<g id="a_edge15&#45;headlabel"><a xlink:href="dir_000022_000044.html" target="_top" xlink:title="6">
<text text-anchor="middle" x="323.6" y="-429.69" font-family="Helvetica,sans-Serif" font-size="10.00" fill="#63b8ff">6</text>
</a>
</g>
</g>
<!-- dir_8fea59914ed62cb03361854cdbc2abdc&#45;&gt;dir_270e08c14b917b5512a0af8e51711095 -->
<g id="edge16" class="edge">
<title>dir_8fea59914ed62cb03361854cdbc2abdc&#45;&gt;dir_270e08c14b917b5512a0af8e51711095</title>
<g id="a_edge16"><a xlink:href="dir_000022_000046.html" target="_top">
<path fill="none" stroke="#63b8ff" d="M380.2,-467.13C417.69,-455.35 497,-423.44 497,-364.5 497,-364.5 497,-364.5 497,-307.5 497,-259.01 442.61,-227.73 405.02,-211.91"/>
<polygon fill="#63b8ff" stroke="#63b8ff" points="405.98,-208.52 395.4,-208.03 403.36,-215.01 405.98,-208.52"/>
</a>
</g>
<g id="a_edge16&#45;headlabel"><a xlink:href="dir_000022_000046.html" target="_top" xlink:title="5">
<text text-anchor="middle" x="410.37" y="-204.73" font-family="Helvetica,sans-Serif" font-size="10.00" fill="#63b8ff">5</text>
</a>
</g>
</g>
<!-- dir_f103a4bf208ee4357eeb452eadcc1375 -->
<g id="node12" class="node">
<title>dir_f103a4bf208ee4357eeb452eadcc1375</title>
<g id="a_node12"><a xlink:href="dir_f103a4bf208ee4357eeb452eadcc1375.html" target="_top" xlink:title="radiative_transport">
<polygon fill="#a2b4d6" stroke="#404040" points="478,-373 368,-373 368,-354 478,-354 478,-373"/>
<text text-anchor="middle" x="423" y="-361" font-family="Helvetica,sans-Serif" font-size="10.00">radiative_transport</text>
</a>
</g>
</g>
<!-- dir_8fea59914ed62cb03361854cdbc2abdc&#45;&gt;dir_f103a4bf208ee4357eeb452eadcc1375 -->
<g id="edge22" class="edge">
<title>dir_8fea59914ed62cb03361854cdbc2abdc&#45;&gt;dir_f103a4bf208ee4357eeb452eadcc1375</title>
<g id="a_edge22"><a xlink:href="dir_000022_000048.html" target="_top">
<path fill="none" stroke="#63b8ff" d="M366.07,-463.66C376.3,-445.85 399.54,-405.37 412.95,-382.01"/>
<polygon fill="#63b8ff" stroke="#63b8ff" points="416.09,-383.57 418.03,-373.16 410.02,-380.09 416.09,-383.57"/>
</a>
</g>
<g id="a_edge22&#45;headlabel"><a xlink:href="dir_000022_000048.html" target="_top" xlink:title="2">
<text text-anchor="middle" x="416.76" y="-385.6" font-family="Helvetica,sans-Serif" font-size="10.00" fill="#63b8ff">2</text>
</a>
</g>
</g>
<!-- dir_8fea59914ed62cb03361854cdbc2abdc&#45;&gt;dir_e210c3716260b17f672da194eece00e5 -->
<g id="edge21" class="edge">
<title>dir_8fea59914ed62cb03361854cdbc2abdc&#45;&gt;dir_e210c3716260b17f672da194eece00e5</title>
<g id="a_edge21"><a xlink:href="dir_000022_000058.html" target="_top">
<path fill="none" stroke="#63b8ff" d="M380.13,-468.71C421.79,-459.24 517,-430.38 517,-364.5 517,-364.5 517,-364.5 517,-197.5 517,-137.92 444.74,-110.65 390.29,-98.56"/>
<polygon fill="#63b8ff" stroke="#63b8ff" points="390.86,-95.11 380.36,-96.48 389.42,-101.96 390.86,-95.11"/>
</a>
</g>
<g id="a_edge21&#45;headlabel"><a xlink:href="dir_000022_000058.html" target="_top" xlink:title="4">
<text text-anchor="middle" x="394.96" y="-90.57" font-family="Helvetica,sans-Serif" font-size="10.00" fill="#63b8ff">4</text>
</a>
</g>
</g>
<!-- dir_8fea59914ed62cb03361854cdbc2abdc&#45;&gt;dir_33f297a483115a9e2addf470c6b064fb -->
<g id="edge17" class="edge">
<title>dir_8fea59914ed62cb03361854cdbc2abdc&#45;&gt;dir_33f297a483115a9e2addf470c6b064fb</title>
<g id="a_edge17"><a xlink:href="dir_000022_000069.html" target="_top">
<path fill="none" stroke="#63b8ff" d="M341.85,-472.91C279.49,-473.78 83.98,-472.85 45,-428 -29.77,-341.97 55.78,-267.94 138,-189 151.82,-175.73 170.36,-165.02 186.01,-157.43"/>
<polygon fill="#63b8ff" stroke="#63b8ff" points="187.71,-160.5 195.31,-153.12 184.76,-154.15 187.71,-160.5"/>
</a>
</g>
<g id="a_edge17&#45;headlabel"><a xlink:href="dir_000022_000069.html" target="_top" xlink:title="6">
<text text-anchor="middle" x="185.64" y="-162.09" font-family="Helvetica,sans-Serif" font-size="10.00" fill="#63b8ff">6</text>
</a>
</g>
</g>
<!-- dir_d8c980f69678bb74c2eb96a617637411&#45;&gt;dir_fe928e0a3314c1b06e0294715d23dc51 -->
<g id="edge28" class="edge">
<title>dir_d8c980f69678bb74c2eb96a617637411&#45;&gt;dir_fe928e0a3314c1b06e0294715d23dc51</title>
<g id="a_edge28"><a xlink:href="dir_000025_000010.html" target="_top">
<path fill="none" stroke="#63b8ff" d="M337.24,-263.07C324.31,-271.6 301.67,-284.79 283.31,-294.58"/>
<polygon fill="#63b8ff" stroke="#63b8ff" points="281.68,-291.49 274.44,-299.22 284.92,-297.69 281.68,-291.49"/>
</a>
</g>
<g id="a_edge28&#45;headlabel"><a xlink:href="dir_000025_000010.html" target="_top" xlink:title="29">
<text text-anchor="middle" x="283.55" y="-284.81" font-family="Helvetica,sans-Serif" font-size="10.00" fill="#63b8ff">29</text>
</a>
</g>
</g>
<!-- dir_d8c980f69678bb74c2eb96a617637411&#45;&gt;dir_7408abf3d1459402edeb1922a4712e77 -->
<g id="edge26" class="edge">
<title>dir_d8c980f69678bb74c2eb96a617637411&#45;&gt;dir_7408abf3d1459402edeb1922a4712e77</title>
<g id="a_edge26"><a xlink:href="dir_000025_000027.html" target="_top">
<path fill="none" stroke="#63b8ff" d="M377.64,-244.02C395.43,-237.35 416.37,-226.08 427,-208 431.28,-200.72 428.4,-197.33 427,-189 418.44,-137.99 419.24,-120.96 389,-79 380.22,-66.81 367.16,-56.38 355.65,-48.69"/>
<polygon fill="#63b8ff" stroke="#63b8ff" points="357.19,-45.52 346.87,-43.13 353.45,-51.44 357.19,-45.52"/>
</a>
</g>
<g id="a_edge26&#45;headlabel"><a xlink:href="dir_000025_000027.html" target="_top" xlink:title="21">
<text text-anchor="middle" x="361.75" y="-42.55" font-family="Helvetica,sans-Serif" font-size="10.00" fill="#63b8ff">21</text>
</a>
</g>
</g>
<!-- dir_d8c980f69678bb74c2eb96a617637411&#45;&gt;dir_270e08c14b917b5512a0af8e51711095 -->
<g id="edge24" class="edge">
<title>dir_d8c980f69678bb74c2eb96a617637411&#45;&gt;dir_270e08c14b917b5512a0af8e51711095</title>
<g id="a_edge24"><a xlink:href="dir_000025_000046.html" target="_top">
<path fill="none" stroke="#63b8ff" d="M350.8,-243.75C353.91,-236.57 358.42,-226.18 362.29,-217.27"/>
<polygon fill="#63b8ff" stroke="#63b8ff" points="365.5,-218.66 366.27,-208.09 359.08,-215.87 365.5,-218.66"/>
</a>
</g>
<g id="a_edge24&#45;headlabel"><a xlink:href="dir_000025_000046.html" target="_top" xlink:title="8">
<text text-anchor="middle" x="366.68" y="-220.58" font-family="Helvetica,sans-Serif" font-size="10.00" fill="#63b8ff">8</text>
</a>
</g>
</g>
<!-- dir_d8c980f69678bb74c2eb96a617637411&#45;&gt;dir_e210c3716260b17f672da194eece00e5 -->
<g id="edge27" class="edge">
<title>dir_d8c980f69678bb74c2eb96a617637411&#45;&gt;dir_e210c3716260b17f672da194eece00e5</title>
<g id="a_edge27"><a xlink:href="dir_000025_000058.html" target="_top">
<path fill="none" stroke="#63b8ff" d="M337.98,-243.96C329.93,-235.66 318.71,-222.25 314,-208 302.64,-173.6 314.63,-131.11 323.44,-107.49"/>
<polygon fill="#63b8ff" stroke="#63b8ff" points="326.74,-108.65 327.17,-98.07 320.24,-106.08 326.74,-108.65"/>
</a>
</g>
<g id="a_edge27&#45;headlabel"><a xlink:href="dir_000025_000058.html" target="_top" xlink:title="23">
<text text-anchor="middle" x="328.06" y="-110.54" font-family="Helvetica,sans-Serif" font-size="10.00" fill="#63b8ff">23</text>
</a>
</g>
</g>
<!-- dir_d8c980f69678bb74c2eb96a617637411&#45;&gt;dir_33f297a483115a9e2addf470c6b064fb -->
<g id="edge25" class="edge">
<title>dir_d8c980f69678bb74c2eb96a617637411&#45;&gt;dir_33f297a483115a9e2addf470c6b064fb</title>
<g id="a_edge25"><a xlink:href="dir_000025_000069.html" target="_top">
<path fill="none" stroke="#63b8ff" d="M336.36,-243.66C314.16,-225.22 262.67,-182.45 235.14,-159.57"/>
<polygon fill="#63b8ff" stroke="#63b8ff" points="237.35,-156.86 227.42,-153.16 232.88,-162.24 237.35,-156.86"/>
</a>
</g>
<g id="a_edge25&#45;headlabel"><a xlink:href="dir_000025_000069.html" target="_top" xlink:title="23">
<text text-anchor="middle" x="241.93" y="-154.47" font-family="Helvetica,sans-Serif" font-size="10.00" fill="#63b8ff">23</text>
</a>
</g>
</g>
<!-- dir_7408abf3d1459402edeb1922a4712e77&#45;&gt;dir_fe928e0a3314c1b06e0294715d23dc51 -->
<g id="edge31" class="edge">
<title>dir_7408abf3d1459402edeb1922a4712e77&#45;&gt;dir_fe928e0a3314c1b06e0294715d23dc51</title>
<g id="a_edge31"><a xlink:href="dir_000027_000010.html" target="_top">
<path fill="none" stroke="#63b8ff" d="M312.97,-43.07C299.46,-50.53 281.84,-62.72 273,-79 253.53,-114.86 253.7,-239.92 254.54,-288.24"/>
<polygon fill="#63b8ff" stroke="#63b8ff" points="251.05,-288.61 254.75,-298.53 258.05,-288.46 251.05,-288.61"/>
</a>
</g>
<g id="a_edge31&#45;headlabel"><a xlink:href="dir_000027_000010.html" target="_top" xlink:title="7">
<text text-anchor="middle" x="248.14" y="-282.57" font-family="Helvetica,sans-Serif" font-size="10.00" fill="#63b8ff">7</text>
</a>
</g>
</g>
<!-- dir_7408abf3d1459402edeb1922a4712e77&#45;&gt;dir_e210c3716260b17f672da194eece00e5 -->
<g id="edge30" class="edge">
<title>dir_7408abf3d1459402edeb1922a4712e77&#45;&gt;dir_e210c3716260b17f672da194eece00e5</title>
<g id="a_edge30"><a xlink:href="dir_000027_000058.html" target="_top">
<path fill="none" stroke="#63b8ff" d="M336.13,-43.09C337.64,-49.99 338.09,-59.93 337.49,-68.66"/>
<polygon fill="#63b8ff" stroke="#63b8ff" points="334,-68.38 336.17,-78.75 340.94,-69.29 334,-68.38"/>
</a>
</g>
<g id="a_edge30&#45;headlabel"><a xlink:href="dir_000027_000058.html" target="_top" xlink:title="2">
<text text-anchor="middle" x="331.65" y="-61.94" font-family="Helvetica,sans-Serif" font-size="10.00" fill="#63b8ff">2</text>
</a>
</g>
</g>
<!-- dir_7408abf3d1459402edeb1922a4712e77&#45;&gt;dir_33f297a483115a9e2addf470c6b064fb -->
<g id="edge29" class="edge">
<title>dir_7408abf3d1459402edeb1922a4712e77&#45;&gt;dir_33f297a483115a9e2addf470c6b064fb</title>
<g id="a_edge29"><a xlink:href="dir_000027_000069.html" target="_top">
<path fill="none" stroke="#63b8ff" d="M312.02,-43.08C296.27,-50.85 273.95,-63.46 258,-79 244.37,-92.28 233.02,-110.9 225.75,-124.54"/>
<polygon fill="#63b8ff" stroke="#63b8ff" points="222.44,-123.33 221.01,-133.83 228.67,-126.51 222.44,-123.33"/>
</a>
</g>
<g id="a_edge29&#45;headlabel"><a xlink:href="dir_000027_000069.html" target="_top" xlink:title="5">
<text text-anchor="middle" x="221.54" y="-116.34" font-family="Helvetica,sans-Serif" font-size="10.00" fill="#63b8ff">5</text>
</a>
</g>
</g>
<!-- dir_39446897a1438b7558941c3f21df2e43&#45;&gt;dir_e210c3716260b17f672da194eece00e5 -->
<g id="edge33" class="edge">
<title>dir_39446897a1438b7558941c3f21df2e43&#45;&gt;dir_e210c3716260b17f672da194eece00e5</title>
<g id="a_edge33"><a xlink:href="dir_000042_000058.html" target="_top">
<path fill="none" stroke="#63b8ff" d="M62.96,-188.63C77.46,-174.81 107.52,-148.23 138,-134 180.56,-114.12 232.66,-102.79 271.99,-96.54"/>
<polygon fill="#63b8ff" stroke="#63b8ff" points="272.6,-99.99 281.96,-95.02 271.55,-93.07 272.6,-99.99"/>
</a>
</g>
<g id="a_edge33&#45;headlabel"><a xlink:href="dir_000042_000058.html" target="_top" xlink:title="2">
<text text-anchor="middle" x="269.47" y="-100.83" font-family="Helvetica,sans-Serif" font-size="10.00" fill="#63b8ff">2</text>
</a>
</g>
</g>
<!-- dir_39446897a1438b7558941c3f21df2e43&#45;&gt;dir_33f297a483115a9e2addf470c6b064fb -->
<g id="edge32" class="edge">
<title>dir_39446897a1438b7558941c3f21df2e43&#45;&gt;dir_33f297a483115a9e2addf470c6b064fb</title>
<g id="a_edge32"><a xlink:href="dir_000042_000069.html" target="_top">
<path fill="none" stroke="#63b8ff" d="M80.19,-188.98C107.44,-180.13 150.3,-166.19 180.78,-156.28"/>
<polygon fill="#63b8ff" stroke="#63b8ff" points="182.18,-159.5 190.61,-153.08 180.01,-152.85 182.18,-159.5"/>
</a>
</g>
<g id="a_edge32&#45;headlabel"><a xlink:href="dir_000042_000069.html" target="_top" xlink:title="2">
<text text-anchor="middle" x="179.64" y="-160.81" font-family="Helvetica,sans-Serif" font-size="10.00" fill="#63b8ff">2</text>
</a>
</g>
</g>
<!-- dir_20597749ce1f45b6168fd991693c8c45&#45;&gt;dir_fe928e0a3314c1b06e0294715d23dc51 -->
<g id="edge38" class="edge">
<title>dir_20597749ce1f45b6168fd991693c8c45&#45;&gt;dir_fe928e0a3314c1b06e0294715d23dc51</title>
<g id="a_edge38"><a xlink:href="dir_000044_000010.html" target="_top">
<path fill="none" stroke="#63b8ff" d="M295.4,-408.66C288.21,-391.01 271.94,-351.09 262.39,-327.64"/>
<polygon fill="#63b8ff" stroke="#63b8ff" points="265.54,-326.1 258.53,-318.16 259.06,-328.74 265.54,-326.1"/>
</a>
</g>
<g id="a_edge38&#45;headlabel"><a xlink:href="dir_000044_000010.html" target="_top" xlink:title="15">
<text text-anchor="middle" x="269.53" y="-325.86" font-family="Helvetica,sans-Serif" font-size="10.00" fill="#63b8ff">15</text>
</a>
</g>
</g>
<!-- dir_20597749ce1f45b6168fd991693c8c45&#45;&gt;dir_e71d216056fb13ff2a67c48841417c25 -->
<g id="edge37" class="edge">
<title>dir_20597749ce1f45b6168fd991693c8c45&#45;&gt;dir_e71d216056fb13ff2a67c48841417c25</title>
<g id="a_edge37"><a xlink:href="dir_000044_000017.html" target="_top">
<path fill="none" stroke="#63b8ff" d="M279.56,-408.98C259.66,-400.27 228.53,-386.63 205.98,-376.76"/>
<polygon fill="#63b8ff" stroke="#63b8ff" points="207.16,-373.45 196.6,-372.65 204.35,-379.86 207.16,-373.45"/>
</a>
</g>
<g id="a_edge37&#45;headlabel"><a xlink:href="dir_000044_000017.html" target="_top" xlink:title="1">
<text text-anchor="middle" x="211.59" y="-369.79" font-family="Helvetica,sans-Serif" font-size="10.00" fill="#63b8ff">1</text>
</a>
</g>
</g>
<!-- dir_20597749ce1f45b6168fd991693c8c45&#45;&gt;dir_d8c980f69678bb74c2eb96a617637411 -->
<g id="edge36" class="edge">
<title>dir_20597749ce1f45b6168fd991693c8c45&#45;&gt;dir_d8c980f69678bb74c2eb96a617637411</title>
<g id="a_edge36"><a xlink:href="dir_000044_000025.html" target="_top">
<path fill="none" stroke="#63b8ff" d="M300.63,-408.74C304.44,-388.91 314.6,-339.19 328,-299 330.99,-290.03 335.02,-280.36 338.6,-272.32"/>
<polygon fill="#63b8ff" stroke="#63b8ff" points="341.8,-273.75 342.78,-263.2 335.43,-270.83 341.8,-273.75"/>
</a>
</g>
<g id="a_edge36&#45;headlabel"><a xlink:href="dir_000044_000025.html" target="_top" xlink:title="7">
<text text-anchor="middle" x="342.88" y="-275.7" font-family="Helvetica,sans-Serif" font-size="10.00" fill="#63b8ff">7</text>
</a>
</g>
</g>
<!-- dir_20597749ce1f45b6168fd991693c8c45&#45;&gt;dir_270e08c14b917b5512a0af8e51711095 -->
<g id="edge34" class="edge">
<title>dir_20597749ce1f45b6168fd991693c8c45&#45;&gt;dir_270e08c14b917b5512a0af8e51711095</title>
<g id="a_edge34"><a xlink:href="dir_000044_000046.html" target="_top">
<path fill="none" stroke="#63b8ff" d="M306.16,-408.83C324.12,-386.45 370.8,-324.17 387,-263 391.1,-247.5 385.59,-229.9 379.77,-217.16"/>
<polygon fill="#63b8ff" stroke="#63b8ff" points="382.84,-215.48 375.22,-208.12 376.59,-218.63 382.84,-215.48"/>
</a>
</g>
<g id="a_edge34&#45;headlabel"><a xlink:href="dir_000044_000046.html" target="_top" xlink:title="2">
<text text-anchor="middle" x="387" y="-214.92" font-family="Helvetica,sans-Serif" font-size="10.00" fill="#63b8ff">2</text>
</a>
</g>
</g>
<!-- dir_20597749ce1f45b6168fd991693c8c45&#45;&gt;dir_33f297a483115a9e2addf470c6b064fb -->
<g id="edge35" class="edge">
<title>dir_20597749ce1f45b6168fd991693c8c45&#45;&gt;dir_33f297a483115a9e2addf470c6b064fb</title>
<g id="a_edge35"><a xlink:href="dir_000044_000069.html" target="_top">
<path fill="none" stroke="#63b8ff" d="M290.07,-408.93C274.01,-392.87 240.66,-356.37 227,-318 207.99,-264.58 211.5,-196.1 214.71,-163.45"/>
<polygon fill="#63b8ff" stroke="#63b8ff" points="218.23,-163.46 215.84,-153.14 211.27,-162.7 218.23,-163.46"/>
</a>
</g>
<g id="a_edge35&#45;headlabel"><a xlink:href="dir_000044_000069.html" target="_top" xlink:title="8">
<text text-anchor="middle" x="220.66" y="-164.84" font-family="Helvetica,sans-Serif" font-size="10.00" fill="#63b8ff">8</text>
</a>
</g>
</g>
<!-- dir_270e08c14b917b5512a0af8e51711095&#45;&gt;dir_e210c3716260b17f672da194eece00e5 -->
<g id="edge40" class="edge">
<title>dir_270e08c14b917b5512a0af8e51711095&#45;&gt;dir_e210c3716260b17f672da194eece00e5</title>
<g id="a_edge40"><a xlink:href="dir_000046_000058.html" target="_top">
<path fill="none" stroke="#63b8ff" d="M366.81,-188.66C360.43,-171.01 346.02,-131.09 337.55,-107.64"/>
<polygon fill="#63b8ff" stroke="#63b8ff" points="340.82,-106.38 334.13,-98.16 334.23,-108.75 340.82,-106.38"/>
</a>
</g>
<g id="a_edge40&#45;headlabel"><a xlink:href="dir_000046_000058.html" target="_top" xlink:title="1">
<text text-anchor="middle" x="344.71" y="-106.29" font-family="Helvetica,sans-Serif" font-size="10.00" fill="#63b8ff">1</text>
</a>
</g>
</g>
<!-- dir_270e08c14b917b5512a0af8e51711095&#45;&gt;dir_33f297a483115a9e2addf470c6b064fb -->
<g id="edge39" class="edge">
<title>dir_270e08c14b917b5512a0af8e51711095&#45;&gt;dir_33f297a483115a9e2addf470c6b064fb</title>
<g id="a_edge39"><a xlink:href="dir_000046_000069.html" target="_top">
<path fill="none" stroke="#63b8ff" d="M345.42,-188.98C319.95,-180.16 279.96,-166.31 251.37,-156.41"/>
<polygon fill="#63b8ff" stroke="#63b8ff" points="252.37,-153.05 241.77,-153.08 250.08,-159.66 252.37,-153.05"/>
</a>
</g>
<g id="a_edge39&#45;headlabel"><a xlink:href="dir_000046_000069.html" target="_top" xlink:title="1">
<text text-anchor="middle" x="256.7" y="-149.04" font-family="Helvetica,sans-Serif" font-size="10.00" fill="#63b8ff">1</text>
</a>
</g>
</g>
<!-- dir_f103a4bf208ee4357eeb452eadcc1375&#45;&gt;dir_fe928e0a3314c1b06e0294715d23dc51 -->
<g id="edge46" class="edge">
<title>dir_f103a4bf208ee4357eeb452eadcc1375&#45;&gt;dir_fe928e0a3314c1b06e0294715d23dc51</title>
<g id="a_edge46"><a xlink:href="dir_000048_000010.html" target="_top">
<path fill="none" stroke="#63b8ff" d="M396.01,-353.98C365.34,-344.31 315.48,-328.58 284,-318.65"/>
<polygon fill="#63b8ff" stroke="#63b8ff" points="284.68,-315.19 274.09,-315.52 282.57,-321.87 284.68,-315.19"/>
</a>
</g>
<g id="a_edge46&#45;headlabel"><a xlink:href="dir_000048_000010.html" target="_top" xlink:title="8">
<text text-anchor="middle" x="288.96" y="-311.07" font-family="Helvetica,sans-Serif" font-size="10.00" fill="#63b8ff">8</text>
</a>
</g>
</g>
<!-- dir_f103a4bf208ee4357eeb452eadcc1375&#45;&gt;dir_d8c980f69678bb74c2eb96a617637411 -->
<g id="edge44" class="edge">
<title>dir_f103a4bf208ee4357eeb452eadcc1375&#45;&gt;dir_d8c980f69678bb74c2eb96a617637411</title>
<g id="a_edge44"><a xlink:href="dir_000048_000025.html" target="_top">
<path fill="none" stroke="#63b8ff" d="M416.78,-353.66C404.14,-335.69 375.25,-294.64 358.88,-271.38"/>
<polygon fill="#63b8ff" stroke="#63b8ff" points="361.71,-269.32 353.09,-263.16 355.99,-273.35 361.71,-269.32"/>
</a>
</g>
<g id="a_edge44&#45;headlabel"><a xlink:href="dir_000048_000025.html" target="_top" xlink:title="1">
<text text-anchor="middle" x="366.1" y="-268.13" font-family="Helvetica,sans-Serif" font-size="10.00" fill="#63b8ff">1</text>
</a>
</g>
</g>
<!-- dir_f103a4bf208ee4357eeb452eadcc1375&#45;&gt;dir_7408abf3d1459402edeb1922a4712e77 -->
<g id="edge43" class="edge">
<title>dir_f103a4bf208ee4357eeb452eadcc1375&#45;&gt;dir_7408abf3d1459402edeb1922a4712e77</title>
<g id="a_edge43"><a xlink:href="dir_000048_000027.html" target="_top">
<path fill="none" stroke="#63b8ff" d="M430.18,-353.9C436.92,-345.35 446.73,-331.58 452,-318 463.98,-287.11 466.35,-276.7 461,-244 448.37,-166.84 450.65,-138.56 400,-79 388.97,-66.03 373.21,-55.48 359.54,-47.91"/>
<polygon fill="#63b8ff" stroke="#63b8ff" points="360.97,-44.71 350.49,-43.15 357.72,-50.9 360.97,-44.71"/>
</a>
</g>
<g id="a_edge43&#45;headlabel"><a xlink:href="dir_000048_000027.html" target="_top" xlink:title="4">
<text text-anchor="middle" x="365.48" y="-41.36" font-family="Helvetica,sans-Serif" font-size="10.00" fill="#63b8ff">4</text>
</a>
</g>
</g>
<!-- dir_f103a4bf208ee4357eeb452eadcc1375&#45;&gt;dir_270e08c14b917b5512a0af8e51711095 -->
<g id="edge41" class="edge">
<title>dir_f103a4bf208ee4357eeb452eadcc1375&#45;&gt;dir_270e08c14b917b5512a0af8e51711095</title>
<g id="a_edge41"><a xlink:href="dir_000048_000046.html" target="_top">
<path fill="none" stroke="#63b8ff" d="M422.77,-353.8C421.96,-333.68 418.33,-282.69 402,-244 397.76,-233.96 390.91,-223.99 384.63,-216.04"/>
<polygon fill="#63b8ff" stroke="#63b8ff" points="387.28,-213.75 378.19,-208.31 381.9,-218.23 387.28,-213.75"/>
</a>
</g>
<g id="a_edge41&#45;headlabel"><a xlink:href="dir_000048_000046.html" target="_top" xlink:title="1">
<text text-anchor="middle" x="391.76" y="-212.2" font-family="Helvetica,sans-Serif" font-size="10.00" fill="#63b8ff">1</text>
</a>
</g>
</g>
<!-- dir_f103a4bf208ee4357eeb452eadcc1375&#45;&gt;dir_e210c3716260b17f672da194eece00e5 -->
<g id="edge45" class="edge">
<title>dir_f103a4bf208ee4357eeb452eadcc1375&#45;&gt;dir_e210c3716260b17f672da194eece00e5</title>
<g id="a_edge45"><a xlink:href="dir_000048_000058.html" target="_top">
<path fill="none" stroke="#63b8ff" d="M428.11,-353.94C433.12,-345.19 440.62,-331.08 445,-318 454.12,-290.76 457,-283.22 457,-254.5 457,-254.5 457,-254.5 457,-197.5 457,-149.23 403.04,-117.89 365.74,-101.99"/>
<polygon fill="#63b8ff" stroke="#63b8ff" points="366.78,-98.63 356.2,-98.09 364.13,-105.11 366.78,-98.63"/>
</a>
</g>
<g id="a_edge45&#45;headlabel"><a xlink:href="dir_000048_000058.html" target="_top" xlink:title="3">
<text text-anchor="middle" x="371.18" y="-94.86" font-family="Helvetica,sans-Serif" font-size="10.00" fill="#63b8ff">3</text>
</a>
</g>
</g>
<!-- dir_f103a4bf208ee4357eeb452eadcc1375&#45;&gt;dir_33f297a483115a9e2addf470c6b064fb -->
<g id="edge42" class="edge">
<title>dir_f103a4bf208ee4357eeb452eadcc1375&#45;&gt;dir_33f297a483115a9e2addf470c6b064fb</title>
<g id="a_edge42"><a xlink:href="dir_000048_000069.html" target="_top">
<path fill="none" stroke="#63b8ff" d="M426.72,-353.68C437.8,-325.86 467.4,-238.86 427,-189 405.61,-162.6 308.15,-151.23 253.84,-146.88"/>
<polygon fill="#63b8ff" stroke="#63b8ff" points="253.82,-143.36 243.59,-146.1 253.29,-150.34 253.82,-143.36"/>
</a>
</g>
<g id="a_edge42&#45;headlabel"><a xlink:href="dir_000048_000069.html" target="_top" xlink:title="3">
<text text-anchor="middle" x="257.62" y="-138.31" font-family="Helvetica,sans-Serif" font-size="10.00" fill="#63b8ff">3</text>
</a>
</g>
</g>
<!-- dir_e210c3716260b17f672da194eece00e5&#45;&gt;dir_fe928e0a3314c1b06e0294715d23dc51 -->
<g id="edge49" class="edge">
<title>dir_e210c3716260b17f672da194eece00e5&#45;&gt;dir_fe928e0a3314c1b06e0294715d23dc51</title>
<g id="a_edge49"><a xlink:href="dir_000058_000010.html" target="_top">
<path fill="none" stroke="#63b8ff" d="M325.67,-98.11C320.41,-106.89 312.38,-121.03 307,-134 284.28,-188.83 266.79,-257.12 259.18,-289.22"/>
<polygon fill="#63b8ff" stroke="#63b8ff" points="255.76,-288.45 256.9,-298.98 262.58,-290.04 255.76,-288.45"/>
</a>
</g>
<g id="a_edge49&#45;headlabel"><a xlink:href="dir_000058_000010.html" target="_top" xlink:title="1">
<text text-anchor="middle" x="253.81" y="-281.8" font-family="Helvetica,sans-Serif" font-size="10.00" fill="#63b8ff">1</text>
</a>
</g>
</g>
<!-- dir_e210c3716260b17f672da194eece00e5&#45;&gt;dir_7408abf3d1459402edeb1922a4712e77 -->
<g id="edge48" class="edge">
<title>dir_e210c3716260b17f672da194eece00e5&#45;&gt;dir_7408abf3d1459402edeb1922a4712e77</title>
<g id="a_edge48"><a xlink:href="dir_000058_000027.html" target="_top">
<path fill="none" stroke="#63b8ff" d="M325.83,-78.75C324.34,-71.8 323.9,-61.85 324.52,-53.13"/>
<polygon fill="#63b8ff" stroke="#63b8ff" points="328.01,-53.47 325.87,-43.09 321.07,-52.53 328.01,-53.47"/>
</a>
</g>
<g id="a_edge48&#45;headlabel"><a xlink:href="dir_000058_000027.html" target="_top" xlink:title="11">
<text text-anchor="middle" x="330.34" y="-54.91" font-family="Helvetica,sans-Serif" font-size="10.00" fill="#63b8ff">11</text>
</a>
</g>
</g>
<!-- dir_e210c3716260b17f672da194eece00e5&#45;&gt;dir_33f297a483115a9e2addf470c6b064fb -->
<g id="edge47" class="edge">
<title>dir_e210c3716260b17f672da194eece00e5&#45;&gt;dir_33f297a483115a9e2addf470c6b064fb</title>
<g id="a_edge47"><a xlink:href="dir_000058_000069.html" target="_top">
<path fill="none" stroke="#63b8ff" d="M317.5,-98.17C300.75,-106.83 272.16,-120.23 249.65,-130.03"/>
<polygon fill="#63b8ff" stroke="#63b8ff" points="248.24,-126.83 240.43,-133.98 251,-133.26 248.24,-126.83"/>
</a>
</g>
<g id="a_edge47&#45;headlabel"><a xlink:href="dir_000058_000069.html" target="_top" xlink:title="4">
<text text-anchor="middle" x="250.43" y="-120.3" font-family="Helvetica,sans-Serif" font-size="10.00" fill="#63b8ff">4</text>
</a>
</g>
</g>
<!-- dir_33f297a483115a9e2addf470c6b064fb&#45;&gt;dir_fe928e0a3314c1b06e0294715d23dc51 -->
<g id="edge51" class="edge">
<title>dir_33f297a483115a9e2addf470c6b064fb&#45;&gt;dir_fe928e0a3314c1b06e0294715d23dc51</title>
<g id="a_edge51"><a xlink:href="dir_000069_000010.html" target="_top">
<path fill="none" stroke="#63b8ff" d="M222.32,-153.31C232.43,-178.79 250.16,-253.03 255.08,-288.37"/>
<polygon fill="#63b8ff" stroke="#63b8ff" points="251.64,-289.18 256.22,-298.74 258.6,-288.41 251.64,-289.18"/>
</a>
</g>
<g id="a_edge51&#45;headlabel"><a xlink:href="dir_000069_000010.html" target="_top" xlink:title="4">
<text text-anchor="middle" x="248.43" y="-283.42" font-family="Helvetica,sans-Serif" font-size="10.00" fill="#63b8ff">4</text>
</a>
</g>
</g>
<!-- dir_33f297a483115a9e2addf470c6b064fb&#45;&gt;dir_e210c3716260b17f672da194eece00e5 -->
<g id="edge50" class="edge">
<title>dir_33f297a483115a9e2addf470c6b064fb&#45;&gt;dir_e210c3716260b17f672da194eece00e5</title>
<g id="a_edge50"><a xlink:href="dir_000069_000058.html" target="_top">
<path fill="none" stroke="#63b8ff" d="M230.2,-133.98C246.81,-125.38 275.36,-111.99 297.94,-102.15"/>
<polygon fill="#63b8ff" stroke="#63b8ff" points="299.4,-105.33 307.2,-98.17 296.63,-98.9 299.4,-105.33"/>
</a>
</g>
<g id="a_edge50&#45;headlabel"><a xlink:href="dir_000069_000058.html" target="_top" xlink:title="2">
<text text-anchor="middle" x="297.21" y="-106.86" font-family="Helvetica,sans-Serif" font-size="10.00" fill="#63b8ff">2</text>
</a>
</g>
</g>
</g>
</svg>
