<?xml version="1.0" encoding="UTF-8" standalone="no"?>
<!DOCTYPE svg PUBLIC "-//W3C//DTD SVG 1.1//EN"
 "http://www.w3.org/Graphics/SVG/1.1/DTD/svg11.dtd">
<!-- Generated by graphviz version 2.43.0 (0)
 -->
<!-- Title: include/meltpooldg/utilities/functions.hpp Pages: 1 -->
<!--zoomable 269 -->

<svg id="main" version="1.1" xmlns="http://www.w3.org/2000/svg" xmlns:xlink="http://www.w3.org/1999/xlink" xml:space="preserve" onload="init(evt)">
<style type="text/css"><![CDATA[
.node, .edge {opacity: 0.7;}
.node.selected, .edge.selected {opacity: 1;}
.edge:hover path { stroke: red; }
.edge:hover polygon { stroke: red; fill: red; }
]]></style>

<defs>
  <circle id="rim" cx="0" cy="0" r="7"/>
  <circle id="rim2" cx="0" cy="0" r="3.5"/>
  <g id="zoomPlus">
    <use xlink:href="#rim" fill="#404040"><set attributeName="fill" to="#808080" begin="zoomplus.mouseover" end="zoomplus.mouseout"/></use>
    <path d="M-4,0h8M0,-4v8" fill="none" stroke="white" stroke-width="1.5" pointer-events="none"/>
  </g>
  <g id="zoomMin">
    <use xlink:href="#rim" fill="#404040"><set attributeName="fill" to="#808080" begin="zoomminus.mouseover" end="zoomminus.mouseout"/></use>
    <path d="M-4,0h8" fill="none" stroke="white" stroke-width="1.5" pointer-events="none"/>
  </g>
  <g id="arrowUp" transform="translate(30 24)">
    <use xlink:href="#rim"/>
    <path pointer-events="none" fill="none" stroke="white" stroke-width="1.5" d="M0,-3.0v7 M-2.5,-0.5L0,-3.0L2.5,-0.5"/>
  </g>
  <g id="arrowRight" transform="rotate(90) translate(36 -43)">
    <use xlink:href="#rim"/>
    <path pointer-events="none" fill="none" stroke="white" stroke-width="1.5" d="M0,-3.0v7 M-2.5,-0.5L0,-3.0L2.5,-0.5"/>
  </g>
  <g id="arrowDown" transform="rotate(180) translate(-30 -48)">
    <use xlink:href="#rim"/>
    <path pointer-events="none" fill="none" stroke="white" stroke-width="1.5" d="M0,-3.0v7 M-2.5,-0.5L0,-3.0L2.5,-0.5"/>
  </g>
  <g id="arrowLeft" transform="rotate(270) translate(-36 17)">
    <use xlink:href="#rim"/>
    <path pointer-events="none" fill="none" stroke="white" stroke-width="1.5" d="M0,-3.0v7 M-2.5,-0.5L0,-3.0L2.5,-0.5"/>
  </g>
  <g id="resetDef">
    <use xlink:href="#rim2" fill="#404040"><set attributeName="fill" to="#808080" begin="reset.mouseover" end="reset.mouseout"/></use>
  </g>
</defs>
<script type="application/ecmascript">
var viewWidth = 2276;
var viewHeight = 269;
var sectionId = 'dynsection-1';
</script>
<script type="application/ecmascript" xlink:href="svg.min.js"/>
<svg id="graph" class="graph">
<g id="viewport">
<title>include/meltpooldg/utilities/functions.hpp</title>
<!-- Node1 -->
<g id="Node000001" class="node">
<title>Node1</title>
<g id="a_Node000001"><a xlink:title=" ">
<polygon fill="#999999" stroke="#666666" points="2013.5,-261 1888.5,-261 1888.5,-231 2013.5,-231 2013.5,-261"/>
<text text-anchor="start" x="1896.5" y="-249" font-family="Helvetica,sans-Serif" font-size="10.00">include/meltpooldg</text>
<text text-anchor="middle" x="1951" y="-238" font-family="Helvetica,sans-Serif" font-size="10.00">/utilities/functions.hpp</text>
</a>
</g>
</g>
<!-- Node2 -->
<g id="Node000002" class="node">
<title>Node2</title>
<g id="a_Node000002"><a xlink:href="compressible__flow__case_8hpp.html" target="_top" xlink:title=" ">
<polygon fill="white" stroke="#666666" points="1123.5,-189.5 940.5,-189.5 940.5,-159.5 1123.5,-159.5 1123.5,-189.5"/>
<text text-anchor="start" x="948.5" y="-177.5" font-family="Helvetica,sans-Serif" font-size="10.00">applications/mp&#45;compressible</text>
<text text-anchor="middle" x="1032" y="-166.5" font-family="Helvetica,sans-Serif" font-size="10.00">&#45;flow/compressible_flow_case.hpp</text>
</a>
</g>
</g>
<!-- Node1&#45;&gt;Node2 -->
<g id="edge1_Node000001_Node000002" class="edge">
<title>Node1&#45;&gt;Node2</title>
<g id="a_edge1_Node000001_Node000002"><a xlink:title=" ">
<path fill="none" stroke="#63b8ff" d="M1878.09,-239.49C1712.14,-226.94 1306.51,-196.26 1123.83,-182.44"/>
<polygon fill="#63b8ff" stroke="#63b8ff" points="1877.96,-242.99 1888.2,-240.25 1878.49,-236.01 1877.96,-242.99"/>
</a>
</g>
</g>
<!-- Node19 -->
<g id="Node000019" class="node">
<title>Node19</title>
<g id="a_Node000019"><a xlink:href="oscillating__water__column_8hpp.html" target="_top" xlink:title=" ">
<polygon fill="white" stroke="#666666" points="1940,-195 1776,-195 1776,-154 1940,-154 1940,-195"/>
<text text-anchor="start" x="1784" y="-183" font-family="Helvetica,sans-Serif" font-size="10.00">applications/mp&#45;compressible</text>
<text text-anchor="start" x="1784" y="-172" font-family="Helvetica,sans-Serif" font-size="10.00">&#45;multiphase/cases/oscillating</text>
<text text-anchor="middle" x="1858" y="-161" font-family="Helvetica,sans-Serif" font-size="10.00">_water_column.hpp</text>
</a>
</g>
</g>
<!-- Node1&#45;&gt;Node19 -->
<g id="edge19_Node000001_Node000019" class="edge">
<title>Node1&#45;&gt;Node19</title>
<g id="a_edge19_Node000001_Node000019"><a xlink:title=" ">
<path fill="none" stroke="#63b8ff" d="M1923.94,-224.77C1911.42,-215.42 1896.6,-204.35 1884.19,-195.07"/>
<polygon fill="#63b8ff" stroke="#63b8ff" points="1922.07,-227.75 1932.18,-230.94 1926.26,-222.15 1922.07,-227.75"/>
</a>
</g>
</g>
<!-- Node21 -->
<g id="Node000021" class="node">
<title>Node21</title>
<g id="a_Node000021"><a xlink:href="spurious__currents_8hpp.html" target="_top" xlink:title=" ">
<polygon fill="white" stroke="#666666" points="2130,-195 1958,-195 1958,-154 2130,-154 2130,-195"/>
<text text-anchor="start" x="1966" y="-183" font-family="Helvetica,sans-Serif" font-size="10.00">applications/mp&#45;melt</text>
<text text-anchor="start" x="1966" y="-172" font-family="Helvetica,sans-Serif" font-size="10.00">&#45;pool/cases/spurious</text>
<text text-anchor="middle" x="2044" y="-161" font-family="Helvetica,sans-Serif" font-size="10.00">_currents/spurious_currents.hpp</text>
</a>
</g>
</g>
<!-- Node1&#45;&gt;Node21 -->
<g id="edge21_Node000001_Node000021" class="edge">
<title>Node1&#45;&gt;Node21</title>
<g id="a_edge21_Node000001_Node000021"><a xlink:title=" ">
<path fill="none" stroke="#63b8ff" d="M1978.06,-224.77C1990.58,-215.42 2005.4,-204.35 2017.81,-195.07"/>
<polygon fill="#63b8ff" stroke="#63b8ff" points="1975.74,-222.15 1969.82,-230.94 1979.93,-227.75 1975.74,-222.15"/>
</a>
</g>
</g>
<!-- Node23 -->
<g id="Node000023" class="node">
<title>Node23</title>
<g id="a_Node000023"><a xlink:href="heat__cut__operation_8cpp.html" target="_top" xlink:title=" ">
<polygon fill="white" stroke="#666666" points="2267.5,-189.5 2148.5,-189.5 2148.5,-159.5 2267.5,-159.5 2267.5,-189.5"/>
<text text-anchor="start" x="2156.5" y="-177.5" font-family="Helvetica,sans-Serif" font-size="10.00">source/heat/heat_cut</text>
<text text-anchor="middle" x="2208" y="-166.5" font-family="Helvetica,sans-Serif" font-size="10.00">_operation.cpp</text>
</a>
</g>
</g>
<!-- Node1&#45;&gt;Node23 -->
<g id="edge23_Node000001_Node000023" class="edge">
<title>Node1&#45;&gt;Node23</title>
<g id="a_edge23_Node000001_Node000023"><a xlink:title=" ">
<path fill="none" stroke="#63b8ff" d="M2014.54,-228.36C2051,-218.75 2097.62,-206.35 2139,-195 2145.36,-193.25 2152.05,-191.4 2158.65,-189.55"/>
<polygon fill="#63b8ff" stroke="#63b8ff" points="2013.32,-225.06 2004.54,-231 2015.1,-231.83 2013.32,-225.06"/>
</a>
</g>
</g>
<!-- Node3 -->
<g id="Node000003" class="node">
<title>Node3</title>
<g id="a_Node000003"><a xlink:href="channel__particle__flow_8hpp.html" target="_top" xlink:title=" ">
<polygon fill="white" stroke="#666666" points="164,-118 0,-118 0,-77 164,-77 164,-118"/>
<text text-anchor="start" x="8" y="-106" font-family="Helvetica,sans-Serif" font-size="10.00">applications/mp&#45;compressible</text>
<text text-anchor="start" x="8" y="-95" font-family="Helvetica,sans-Serif" font-size="10.00">&#45;flow/cases/channel_particle</text>
<text text-anchor="middle" x="82" y="-84" font-family="Helvetica,sans-Serif" font-size="10.00">_flow.hpp</text>
</a>
</g>
</g>
<!-- Node2&#45;&gt;Node3 -->
<g id="edge2_Node000002_Node000003" class="edge">
<title>Node2&#45;&gt;Node3</title>
<g id="a_edge2_Node000002_Node000003"><a xlink:title=" ">
<path fill="none" stroke="#63b8ff" d="M929.94,-171.74C768.54,-167.87 444.77,-155.69 173,-118 170.12,-117.6 167.19,-117.16 164.24,-116.69"/>
<polygon fill="#63b8ff" stroke="#63b8ff" points="930.26,-175.25 940.34,-171.98 930.42,-168.25 930.26,-175.25"/>
</a>
</g>
</g>
<!-- Node5 -->
<g id="Node000005" class="node">
<title>Node5</title>
<g id="a_Node000005"><a xlink:href="cut__flow__over__cylinder_8hpp.html" target="_top" xlink:title=" ">
<polygon fill="white" stroke="#666666" points="346,-118 182,-118 182,-77 346,-77 346,-118"/>
<text text-anchor="start" x="190" y="-106" font-family="Helvetica,sans-Serif" font-size="10.00">applications/mp&#45;compressible</text>
<text text-anchor="start" x="190" y="-95" font-family="Helvetica,sans-Serif" font-size="10.00">&#45;flow/cases/cut_flow_over</text>
<text text-anchor="middle" x="264" y="-84" font-family="Helvetica,sans-Serif" font-size="10.00">_cylinder.hpp</text>
</a>
</g>
</g>
<!-- Node2&#45;&gt;Node5 -->
<g id="edge4_Node000002_Node000005" class="edge">
<title>Node2&#45;&gt;Node5</title>
<g id="a_edge4_Node000002_Node000005"><a xlink:title=" ">
<path fill="none" stroke="#63b8ff" d="M930.25,-169.26C797.38,-162.8 557.82,-147.92 355,-118 352.12,-117.58 349.2,-117.11 346.25,-116.62"/>
<polygon fill="#63b8ff" stroke="#63b8ff" points="930.26,-172.77 940.41,-169.75 930.59,-165.78 930.26,-172.77"/>
</a>
</g>
</g>
<!-- Node7 -->
<g id="Node000007" class="node">
<title>Node7</title>
<g id="a_Node000007"><a xlink:href="cut__moving__cylinder_8hpp.html" target="_top" xlink:title=" ">
<polygon fill="white" stroke="#666666" points="560,-112.5 364,-112.5 364,-82.5 560,-82.5 560,-112.5"/>
<text text-anchor="start" x="372" y="-100.5" font-family="Helvetica,sans-Serif" font-size="10.00">applications/mp&#45;compressible</text>
<text text-anchor="middle" x="462" y="-89.5" font-family="Helvetica,sans-Serif" font-size="10.00">&#45;flow/cases/cut_moving_cylinder.hpp</text>
</a>
</g>
</g>
<!-- Node2&#45;&gt;Node7 -->
<g id="edge6_Node000002_Node000007" class="edge">
<title>Node2&#45;&gt;Node7</title>
<g id="a_edge6_Node000002_Node000007"><a xlink:title=" ">
<path fill="none" stroke="#63b8ff" d="M930.34,-163.12C836.37,-153.09 692.96,-136.71 569,-118 558.17,-116.37 546.76,-114.47 535.58,-112.52"/>
<polygon fill="#63b8ff" stroke="#63b8ff" points="930.1,-166.61 940.41,-164.19 930.84,-159.65 930.1,-166.61"/>
</a>
</g>
</g>
<!-- Node9 -->
<g id="Node000009" class="node">
<title>Node9</title>
<g id="a_Node000009"><a xlink:href="cut__unfitted__inflow_8hpp.html" target="_top" xlink:title=" ">
<polygon fill="white" stroke="#666666" points="742,-118 578,-118 578,-77 742,-77 742,-118"/>
<text text-anchor="start" x="586" y="-106" font-family="Helvetica,sans-Serif" font-size="10.00">applications/mp&#45;compressible</text>
<text text-anchor="start" x="586" y="-95" font-family="Helvetica,sans-Serif" font-size="10.00">&#45;flow/cases/cut_unfitted</text>
<text text-anchor="middle" x="660" y="-84" font-family="Helvetica,sans-Serif" font-size="10.00">_inflow.hpp</text>
</a>
</g>
</g>
<!-- Node2&#45;&gt;Node9 -->
<g id="edge8_Node000002_Node000009" class="edge">
<title>Node2&#45;&gt;Node9</title>
<g id="a_edge8_Node000002_Node000009"><a xlink:title=" ">
<path fill="none" stroke="#63b8ff" d="M949.29,-157.53C893.28,-146.62 817.62,-131.72 751,-118 748.15,-117.41 745.25,-116.81 742.33,-116.2"/>
<polygon fill="#63b8ff" stroke="#63b8ff" points="948.67,-160.97 959.16,-159.45 950.01,-154.1 948.67,-160.97"/>
</a>
</g>
</g>
<!-- Node11 -->
<g id="Node000011" class="node">
<title>Node11</title>
<g id="a_Node000011"><a xlink:href="mp-compressible-flow_2cases_2generic__hyper__rectangle__domain_8hpp.html" target="_top" xlink:title=" ">
<polygon fill="white" stroke="#666666" points="924,-118 760,-118 760,-77 924,-77 924,-118"/>
<text text-anchor="start" x="768" y="-106" font-family="Helvetica,sans-Serif" font-size="10.00">applications/mp&#45;compressible</text>
<text text-anchor="start" x="768" y="-95" font-family="Helvetica,sans-Serif" font-size="10.00">&#45;flow/cases/generic_hyper</text>
<text text-anchor="middle" x="842" y="-84" font-family="Helvetica,sans-Serif" font-size="10.00">_rectangle_domain.hpp</text>
</a>
</g>
</g>
<!-- Node2&#45;&gt;Node11 -->
<g id="edge10_Node000002_Node000011" class="edge">
<title>Node2&#45;&gt;Node11</title>
<g id="a_edge10_Node000002_Node000011"><a xlink:title=" ">
<path fill="none" stroke="#63b8ff" d="M986.88,-155.69C958.2,-144.37 921.06,-129.71 891.56,-118.06"/>
<polygon fill="#63b8ff" stroke="#63b8ff" points="985.68,-158.98 996.26,-159.39 988.25,-152.47 985.68,-158.98"/>
</a>
</g>
</g>
<!-- Node13 -->
<g id="Node000013" class="node">
<title>Node13</title>
<g id="a_Node000013"><a xlink:href="isentropic__vortex_8hpp.html" target="_top" xlink:title=" ">
<polygon fill="white" stroke="#666666" points="1122,-112.5 942,-112.5 942,-82.5 1122,-82.5 1122,-112.5"/>
<text text-anchor="start" x="950" y="-100.5" font-family="Helvetica,sans-Serif" font-size="10.00">applications/mp&#45;compressible</text>
<text text-anchor="middle" x="1032" y="-89.5" font-family="Helvetica,sans-Serif" font-size="10.00">&#45;flow/cases/isentropic_vortex.hpp</text>
</a>
</g>
</g>
<!-- Node2&#45;&gt;Node13 -->
<g id="edge12_Node000002_Node000013" class="edge">
<title>Node2&#45;&gt;Node13</title>
<g id="a_edge12_Node000002_Node000013"><a xlink:title=" ">
<path fill="none" stroke="#63b8ff" d="M1032,-149.04C1032,-136.95 1032,-122.79 1032,-112.54"/>
<polygon fill="#63b8ff" stroke="#63b8ff" points="1028.5,-149.39 1032,-159.39 1035.5,-149.39 1028.5,-149.39"/>
</a>
</g>
</g>
<!-- Node15 -->
<g id="Node000015" class="node">
<title>Node15</title>
<g id="a_Node000015"><a xlink:href="compressible__flow__application_8cpp.html" target="_top" xlink:title=" ">
<polygon fill="white" stroke="#666666" points="1373,-35.5 1159,-35.5 1159,-5.5 1373,-5.5 1373,-35.5"/>
<text text-anchor="start" x="1167" y="-23.5" font-family="Helvetica,sans-Serif" font-size="10.00">applications/mp&#45;compressible</text>
<text text-anchor="middle" x="1266" y="-12.5" font-family="Helvetica,sans-Serif" font-size="10.00">&#45;flow/compressible_flow_application.cpp</text>
</a>
</g>
</g>
<!-- Node2&#45;&gt;Node15 -->
<g id="edge14_Node000002_Node000015" class="edge">
<title>Node2&#45;&gt;Node15</title>
<g id="a_edge14_Node000002_Node000015"><a xlink:title=" ">
<path fill="none" stroke="#63b8ff" d="M1071.49,-154.98C1090.37,-145.24 1112.78,-132.35 1131,-118 1150.52,-102.63 1149.55,-92.46 1169,-77 1189.81,-60.46 1216.13,-45.73 1236.1,-35.61"/>
<polygon fill="#63b8ff" stroke="#63b8ff" points="1069.89,-151.87 1062.54,-159.5 1073.05,-158.12 1069.89,-151.87"/>
</a>
</g>
</g>
<!-- Node16 -->
<g id="Node000016" class="node">
<title>Node16</title>
<g id="a_Node000016"><a xlink:href="compressible__flow__application_8hpp.html" target="_top" xlink:title=" ">
<polygon fill="white" stroke="#666666" points="1393.5,-112.5 1178.5,-112.5 1178.5,-82.5 1393.5,-82.5 1393.5,-112.5"/>
<text text-anchor="start" x="1186.5" y="-100.5" font-family="Helvetica,sans-Serif" font-size="10.00">applications/mp&#45;compressible</text>
<text text-anchor="middle" x="1286" y="-89.5" font-family="Helvetica,sans-Serif" font-size="10.00">&#45;flow/compressible_flow_application.hpp</text>
</a>
</g>
</g>
<!-- Node2&#45;&gt;Node16 -->
<g id="edge15_Node000002_Node000016" class="edge">
<title>Node2&#45;&gt;Node16</title>
<g id="a_edge15_Node000002_Node000016"><a xlink:title=" ">
<path fill="none" stroke="#63b8ff" d="M1089.09,-156.64C1134.05,-143.37 1195.99,-125.08 1238.32,-112.58"/>
<polygon fill="#63b8ff" stroke="#63b8ff" points="1088.08,-153.29 1079.48,-159.48 1090.06,-160.01 1088.08,-153.29"/>
</a>
</g>
</g>
<!-- Node17 -->
<g id="Node000017" class="node">
<title>Node17</title>
<g id="a_Node000017"><a xlink:href="compressible__flow__case__parameter_8cc.html" target="_top" xlink:title=" ">
<polygon fill="white" stroke="#666666" points="1576,-118 1412,-118 1412,-77 1576,-77 1576,-118"/>
<text text-anchor="start" x="1420" y="-106" font-family="Helvetica,sans-Serif" font-size="10.00">applications/mp&#45;compressible</text>
<text text-anchor="start" x="1420" y="-95" font-family="Helvetica,sans-Serif" font-size="10.00">&#45;flow/unit_tests/compressible</text>
<text text-anchor="middle" x="1494" y="-84" font-family="Helvetica,sans-Serif" font-size="10.00">_flow_case_parameter.cc</text>
</a>
</g>
</g>
<!-- Node2&#45;&gt;Node17 -->
<g id="edge17_Node000002_Node000017" class="edge">
<title>Node2&#45;&gt;Node17</title>
<g id="a_edge17_Node000002_Node000017"><a xlink:title=" ">
<path fill="none" stroke="#63b8ff" d="M1134.17,-159.85C1208.62,-149.5 1311.8,-134.31 1402,-118 1405.21,-117.42 1408.49,-116.81 1411.79,-116.18"/>
<polygon fill="#63b8ff" stroke="#63b8ff" points="1133.29,-156.44 1123.86,-161.28 1134.25,-163.38 1133.29,-156.44"/>
</a>
</g>
</g>
<!-- Node18 -->
<g id="Node000018" class="node">
<title>Node18</title>
<g id="a_Node000018"><a xlink:href="mp-compressible-flow_2unit__tests_2detailed__parameters_8cc.html" target="_top" xlink:title=" ">
<polygon fill="white" stroke="#666666" points="1758,-118 1594,-118 1594,-77 1758,-77 1758,-118"/>
<text text-anchor="start" x="1602" y="-106" font-family="Helvetica,sans-Serif" font-size="10.00">applications/mp&#45;compressible</text>
<text text-anchor="start" x="1602" y="-95" font-family="Helvetica,sans-Serif" font-size="10.00">&#45;flow/unit_tests/detailed</text>
<text text-anchor="middle" x="1676" y="-84" font-family="Helvetica,sans-Serif" font-size="10.00">_parameters.cc</text>
</a>
</g>
</g>
<!-- Node2&#45;&gt;Node18 -->
<g id="edge18_Node000002_Node000018" class="edge">
<title>Node2&#45;&gt;Node18</title>
<g id="a_edge18_Node000002_Node000018"><a xlink:title=" ">
<path fill="none" stroke="#63b8ff" d="M1134.1,-166.67C1245.4,-158.42 1428.55,-142.54 1585,-118 1587.87,-117.55 1590.79,-117.07 1593.74,-116.56"/>
<polygon fill="#63b8ff" stroke="#63b8ff" points="1133.61,-163.19 1123.89,-167.42 1134.12,-170.17 1133.61,-163.19"/>
</a>
</g>
</g>
<!-- Node4 -->
<g id="Node000004" class="node">
<title>Node4</title>
<g id="a_Node000004"><a xlink:href="channel__particle__flow_8cpp.html" target="_top" xlink:title=" ">
<polygon fill="white" stroke="#666666" points="164,-41 0,-41 0,0 164,0 164,-41"/>
<text text-anchor="start" x="8" y="-29" font-family="Helvetica,sans-Serif" font-size="10.00">applications/mp&#45;compressible</text>
<text text-anchor="start" x="8" y="-18" font-family="Helvetica,sans-Serif" font-size="10.00">&#45;flow/cases/channel_particle</text>
<text text-anchor="middle" x="82" y="-7" font-family="Helvetica,sans-Serif" font-size="10.00">_flow.cpp</text>
</a>
</g>
</g>
<!-- Node3&#45;&gt;Node4 -->
<g id="edge3_Node000003_Node000004" class="edge">
<title>Node3&#45;&gt;Node4</title>
<g id="a_edge3_Node000003_Node000004"><a xlink:title=" ">
<path fill="none" stroke="#63b8ff" d="M82,-66.69C82,-58.08 82,-48.9 82,-41.07"/>
<polygon fill="#63b8ff" stroke="#63b8ff" points="78.5,-66.79 82,-76.79 85.5,-66.79 78.5,-66.79"/>
</a>
</g>
</g>
<!-- Node6 -->
<g id="Node000006" class="node">
<title>Node6</title>
<g id="a_Node000006"><a xlink:href="cut__flow__over__cylinder_8cpp.html" target="_top" xlink:title=" ">
<polygon fill="white" stroke="#666666" points="346,-41 182,-41 182,0 346,0 346,-41"/>
<text text-anchor="start" x="190" y="-29" font-family="Helvetica,sans-Serif" font-size="10.00">applications/mp&#45;compressible</text>
<text text-anchor="start" x="190" y="-18" font-family="Helvetica,sans-Serif" font-size="10.00">&#45;flow/cases/cut_flow_over</text>
<text text-anchor="middle" x="264" y="-7" font-family="Helvetica,sans-Serif" font-size="10.00">_cylinder.cpp</text>
</a>
</g>
</g>
<!-- Node5&#45;&gt;Node6 -->
<g id="edge5_Node000005_Node000006" class="edge">
<title>Node5&#45;&gt;Node6</title>
<g id="a_edge5_Node000005_Node000006"><a xlink:title=" ">
<path fill="none" stroke="#63b8ff" d="M264,-66.69C264,-58.08 264,-48.9 264,-41.07"/>
<polygon fill="#63b8ff" stroke="#63b8ff" points="260.5,-66.79 264,-76.79 267.5,-66.79 260.5,-66.79"/>
</a>
</g>
</g>
<!-- Node8 -->
<g id="Node000008" class="node">
<title>Node8</title>
<g id="a_Node000008"><a xlink:href="cut__moving__cylinder_8cpp.html" target="_top" xlink:title=" ">
<polygon fill="white" stroke="#666666" points="559.5,-35.5 364.5,-35.5 364.5,-5.5 559.5,-5.5 559.5,-35.5"/>
<text text-anchor="start" x="372.5" y="-23.5" font-family="Helvetica,sans-Serif" font-size="10.00">applications/mp&#45;compressible</text>
<text text-anchor="middle" x="462" y="-12.5" font-family="Helvetica,sans-Serif" font-size="10.00">&#45;flow/cases/cut_moving_cylinder.cpp</text>
</a>
</g>
</g>
<!-- Node7&#45;&gt;Node8 -->
<g id="edge7_Node000007_Node000008" class="edge">
<title>Node7&#45;&gt;Node8</title>
<g id="a_edge7_Node000007_Node000008"><a xlink:title=" ">
<path fill="none" stroke="#63b8ff" d="M462,-72.04C462,-59.95 462,-45.79 462,-35.54"/>
<polygon fill="#63b8ff" stroke="#63b8ff" points="458.5,-72.39 462,-82.39 465.5,-72.39 458.5,-72.39"/>
</a>
</g>
</g>
<!-- Node10 -->
<g id="Node000010" class="node">
<title>Node10</title>
<g id="a_Node000010"><a xlink:href="cut__unfitted__inflow_8cpp.html" target="_top" xlink:title=" ">
<polygon fill="white" stroke="#666666" points="742,-41 578,-41 578,0 742,0 742,-41"/>
<text text-anchor="start" x="586" y="-29" font-family="Helvetica,sans-Serif" font-size="10.00">applications/mp&#45;compressible</text>
<text text-anchor="start" x="586" y="-18" font-family="Helvetica,sans-Serif" font-size="10.00">&#45;flow/cases/cut_unfitted</text>
<text text-anchor="middle" x="660" y="-7" font-family="Helvetica,sans-Serif" font-size="10.00">_inflow.cpp</text>
</a>
</g>
</g>
<!-- Node9&#45;&gt;Node10 -->
<g id="edge9_Node000009_Node000010" class="edge">
<title>Node9&#45;&gt;Node10</title>
<g id="a_edge9_Node000009_Node000010"><a xlink:title=" ">
<path fill="none" stroke="#63b8ff" d="M660,-66.69C660,-58.08 660,-48.9 660,-41.07"/>
<polygon fill="#63b8ff" stroke="#63b8ff" points="656.5,-66.79 660,-76.79 663.5,-66.79 656.5,-66.79"/>
</a>
</g>
</g>
<!-- Node12 -->
<g id="Node000012" class="node">
<title>Node12</title>
<g id="a_Node000012"><a xlink:href="mp-compressible-flow_2cases_2generic__hyper__rectangle__domain_8cpp.html" target="_top" xlink:title=" ">
<polygon fill="white" stroke="#666666" points="924,-41 760,-41 760,0 924,0 924,-41"/>
<text text-anchor="start" x="768" y="-29" font-family="Helvetica,sans-Serif" font-size="10.00">applications/mp&#45;compressible</text>
<text text-anchor="start" x="768" y="-18" font-family="Helvetica,sans-Serif" font-size="10.00">&#45;flow/cases/generic_hyper</text>
<text text-anchor="middle" x="842" y="-7" font-family="Helvetica,sans-Serif" font-size="10.00">_rectangle_domain.cpp</text>
</a>
</g>
</g>
<!-- Node11&#45;&gt;Node12 -->
<g id="edge11_Node000011_Node000012" class="edge">
<title>Node11&#45;&gt;Node12</title>
<g id="a_edge11_Node000011_Node000012"><a xlink:title=" ">
<path fill="none" stroke="#63b8ff" d="M842,-66.69C842,-58.08 842,-48.9 842,-41.07"/>
<polygon fill="#63b8ff" stroke="#63b8ff" points="838.5,-66.79 842,-76.79 845.5,-66.79 838.5,-66.79"/>
</a>
</g>
</g>
<!-- Node14 -->
<g id="Node000014" class="node">
<title>Node14</title>
<g id="a_Node000014"><a xlink:href="isentropic__vortex_8cpp.html" target="_top" xlink:title=" ">
<polygon fill="white" stroke="#666666" points="1121.5,-35.5 942.5,-35.5 942.5,-5.5 1121.5,-5.5 1121.5,-35.5"/>
<text text-anchor="start" x="950.5" y="-23.5" font-family="Helvetica,sans-Serif" font-size="10.00">applications/mp&#45;compressible</text>
<text text-anchor="middle" x="1032" y="-12.5" font-family="Helvetica,sans-Serif" font-size="10.00">&#45;flow/cases/isentropic_vortex.cpp</text>
</a>
</g>
</g>
<!-- Node13&#45;&gt;Node14 -->
<g id="edge13_Node000013_Node000014" class="edge">
<title>Node13&#45;&gt;Node14</title>
<g id="a_edge13_Node000013_Node000014"><a xlink:title=" ">
<path fill="none" stroke="#63b8ff" d="M1032,-72.04C1032,-59.95 1032,-45.79 1032,-35.54"/>
<polygon fill="#63b8ff" stroke="#63b8ff" points="1028.5,-72.39 1032,-82.39 1035.5,-72.39 1028.5,-72.39"/>
</a>
</g>
</g>
<!-- Node16&#45;&gt;Node15 -->
<g id="edge16_Node000016_Node000015" class="edge">
<title>Node16&#45;&gt;Node15</title>
<g id="a_edge16_Node000016_Node000015"><a xlink:title=" ">
<path fill="none" stroke="#63b8ff" d="M1279.58,-72.41C1276.33,-60.24 1272.51,-45.9 1269.74,-35.54"/>
<polygon fill="#63b8ff" stroke="#63b8ff" points="1276.28,-73.63 1282.24,-82.39 1283.04,-71.83 1276.28,-73.63"/>
</a>
</g>
</g>
<!-- Node20 -->
<g id="Node000020" class="node">
<title>Node20</title>
<g id="a_Node000020"><a xlink:href="oscillating__water__column_8cpp.html" target="_top" xlink:title=" ">
<polygon fill="white" stroke="#666666" points="1940,-118 1776,-118 1776,-77 1940,-77 1940,-118"/>
<text text-anchor="start" x="1784" y="-106" font-family="Helvetica,sans-Serif" font-size="10.00">applications/mp&#45;compressible</text>
<text text-anchor="start" x="1784" y="-95" font-family="Helvetica,sans-Serif" font-size="10.00">&#45;multiphase/cases/oscillating</text>
<text text-anchor="middle" x="1858" y="-84" font-family="Helvetica,sans-Serif" font-size="10.00">_water_column.cpp</text>
</a>
</g>
</g>
<!-- Node19&#45;&gt;Node20 -->
<g id="edge20_Node000019_Node000020" class="edge">
<title>Node19&#45;&gt;Node20</title>
<g id="a_edge20_Node000019_Node000020"><a xlink:title=" ">
<path fill="none" stroke="#63b8ff" d="M1858,-143.69C1858,-135.08 1858,-125.9 1858,-118.07"/>
<polygon fill="#63b8ff" stroke="#63b8ff" points="1854.5,-143.79 1858,-153.79 1861.5,-143.79 1854.5,-143.79"/>
</a>
</g>
</g>
<!-- Node22 -->
<g id="Node000022" class="node">
<title>Node22</title>
<g id="a_Node000022"><a xlink:href="spurious__currents_8cpp.html" target="_top" xlink:title=" ">
<polygon fill="white" stroke="#666666" points="2129.5,-118 1958.5,-118 1958.5,-77 2129.5,-77 2129.5,-118"/>
<text text-anchor="start" x="1966.5" y="-106" font-family="Helvetica,sans-Serif" font-size="10.00">applications/mp&#45;melt</text>
<text text-anchor="start" x="1966.5" y="-95" font-family="Helvetica,sans-Serif" font-size="10.00">&#45;pool/cases/spurious</text>
<text text-anchor="middle" x="2044" y="-84" font-family="Helvetica,sans-Serif" font-size="10.00">_currents/spurious_currents.cpp</text>
</a>
</g>
</g>
<!-- Node21&#45;&gt;Node22 -->
<g id="edge22_Node000021_Node000022" class="edge">
<title>Node21&#45;&gt;Node22</title>
<g id="a_edge22_Node000021_Node000022"><a xlink:title=" ">
<path fill="none" stroke="#63b8ff" d="M2044,-143.69C2044,-135.08 2044,-125.9 2044,-118.07"/>
<polygon fill="#63b8ff" stroke="#63b8ff" points="2040.5,-143.79 2044,-153.79 2047.5,-143.79 2040.5,-143.79"/>
</a>
</g>
</g>
</g>
</svg>

<g id="navigator" transform="translate(0 0)" fill="#404254">
  <rect fill="#f2f5e9" fill-opacity="0.5" stroke="#606060" stroke-width=".5" x="0" y="0" width="60" height="60"/>
  <use id="zoomplus" xlink:href="#zoomPlus" x="17" y="9" onmousedown="handleZoom(evt,'in')"/>
  <use id="zoomminus" xlink:href="#zoomMin" x="42" y="9" onmousedown="handleZoom(evt,'out')"/>
  <use id="reset" xlink:href="#resetDef" x="30" y="36" onmousedown="handleReset()"/>
   <use id="arrowup" xlink:href="#arrowUp" x="0" y="0" onmousedown="handlePan(0,-1)"/>
  <use id="arrowright" xlink:href="#arrowRight" x="0" y="0" onmousedown="handlePan(1,0)"/>
  <use id="arrowdown" xlink:href="#arrowDown" x="0" y="0" onmousedown="handlePan(0,1)"/>
  <use id="arrowleft" xlink:href="#arrowLeft" x="0" y="0" onmousedown="handlePan(-1,0)"/>
</g>
<svg viewBox="0 0 15 15" width="100%" height="30px" preserveAspectRatio="xMaxYMin meet">
 <g id="arrow_out" transform="scale(0.3 0.3)">
  <a xlink:href="functions_8hpp__dep__incl_org.svg" target="_base">
   <rect id="button" ry="5" rx="5" y="6" x="6" height="38" width="38"
        fill="#f2f5e9" fill-opacity="0.5" stroke="#606060" stroke-width="1.0"/>
   <path id="arrow"
     d="M 11.500037,31.436501 C 11.940474,20.09759 22.043105,11.32322 32.158766,21.979434 L 37.068811,17.246167 C 37.068811,17.246167 37.088388,32 37.088388,32 L 22.160133,31.978069 C 22.160133,31.978069 26.997745,27.140456 26.997745,27.140456 C 18.528582,18.264221 13.291696,25.230495 11.500037,31.436501 z"
     style="fill:#404040;"/>
  </a>
 </g>
</svg>

<style type='text/css'>
<![CDATA[
[data-mouse-over-selected='false'] { opacity: 0.7; }
[data-mouse-over-selected='true']  { opacity: 1.0; }
]]>
</style>
<script type="application/ecmascript"><![CDATA[
document.addEventListener('DOMContentLoaded', (event) => {
  highlightEdges();
  highlightAdjacentNodes();
});
]]></script>
</svg>
