<?xml version="1.0" encoding="UTF-8" standalone="no"?>
<!DOCTYPE svg PUBLIC "-//W3C//DTD SVG 1.1//EN"
 "http://www.w3.org/Graphics/SVG/1.1/DTD/svg11.dtd">
<!-- Generated by graphviz version 2.43.0 (0)
 -->
<!-- Title: include/meltpooldg/level_set/reinitialization_data.hpp Pages: 1 -->
<svg width="947pt" height="313pt"
 viewBox="0.00 0.00 947.00 313.00" xmlns="http://www.w3.org/2000/svg" xmlns:xlink="http://www.w3.org/1999/xlink">
<g id="graph0" class="graph" transform="scale(1 1) rotate(0) translate(4 309)">
<title>include/meltpooldg/level_set/reinitialization_data.hpp</title>
<!-- Node1 -->
<g id="Node000001" class="node">
<title>Node1</title>
<g id="a_Node000001"><a xlink:title=" ">
<polygon fill="#999999" stroke="#666666" points="578.5,-305 441.5,-305 441.5,-264 578.5,-264 578.5,-305"/>
<text text-anchor="start" x="449.5" y="-293" font-family="Helvetica,sans-Serif" font-size="10.00">include/meltpooldg</text>
<text text-anchor="start" x="449.5" y="-282" font-family="Helvetica,sans-Serif" font-size="10.00">/level_set/reinitialization</text>
<text text-anchor="middle" x="510" y="-271" font-family="Helvetica,sans-Serif" font-size="10.00">_data.hpp</text>
</a>
</g>
</g>
<!-- Node2 -->
<g id="Node000002" class="node">
<title>Node2</title>
<g id="a_Node000002"><a xlink:title=" ">
<polygon fill="#e0e0e0" stroke="#999999" points="138,-222.5 0,-222.5 0,-203.5 138,-203.5 138,-222.5"/>
<text text-anchor="middle" x="69" y="-210.5" font-family="Helvetica,sans-Serif" font-size="10.00">deal.II/base/exceptions.h</text>
</a>
</g>
</g>
<!-- Node1&#45;&gt;Node2 -->
<g id="edge1_Node000001_Node000002" class="edge">
<title>Node1&#45;&gt;Node2</title>
<g id="a_edge1_Node000001_Node000002"><a xlink:title=" ">
<path fill="none" stroke="#63b8ff" d="M441.33,-273.13C369.23,-262.18 252.58,-244.28 152,-228 144.58,-226.8 136.79,-225.51 129.07,-224.23"/>
<polygon fill="#63b8ff" stroke="#63b8ff" points="129.46,-220.75 119.02,-222.55 128.3,-227.65 129.46,-220.75"/>
</a>
</g>
</g>
<!-- Node3 -->
<g id="Node000003" class="node">
<title>Node3</title>
<g id="a_Node000003"><a xlink:title=" ">
<polygon fill="#e0e0e0" stroke="#999999" points="385.5,-30 258.5,-30 258.5,0 385.5,0 385.5,-30"/>
<text text-anchor="start" x="266.5" y="-18" font-family="Helvetica,sans-Serif" font-size="10.00">deal.II/base/parameter</text>
<text text-anchor="middle" x="322" y="-7" font-family="Helvetica,sans-Serif" font-size="10.00">_handler.h</text>
</a>
</g>
</g>
<!-- Node1&#45;&gt;Node3 -->
<g id="edge2_Node000001_Node000003" class="edge">
<title>Node1&#45;&gt;Node3</title>
<g id="a_edge2_Node000001_Node000003"><a xlink:title=" ">
<path fill="none" stroke="#63b8ff" d="M441.24,-280.05C363.85,-272.02 241.56,-245.92 185,-162 150.64,-111.02 229.16,-60.79 280.98,-34.61"/>
<polygon fill="#63b8ff" stroke="#63b8ff" points="282.58,-37.72 290,-30.16 279.48,-31.45 282.58,-37.72"/>
</a>
</g>
</g>
<!-- Node4 -->
<g id="Node000004" class="node">
<title>Node4</title>
<g id="a_Node000004"><a xlink:href="finite__element__data_8hpp.html" target="_top" xlink:title=" ">
<polygon fill="white" stroke="#666666" points="318,-162 194,-162 194,-132 318,-132 318,-162"/>
<text text-anchor="start" x="202" y="-150" font-family="Helvetica,sans-Serif" font-size="10.00">meltpooldg/core/finite</text>
<text text-anchor="middle" x="256" y="-139" font-family="Helvetica,sans-Serif" font-size="10.00">_element_data.hpp</text>
</a>
</g>
</g>
<!-- Node1&#45;&gt;Node4 -->
<g id="edge3_Node000001_Node000004" class="edge">
<title>Node1&#45;&gt;Node4</title>
<g id="a_edge3_Node000001_Node000004"><a xlink:title=" ">
<path fill="none" stroke="#63b8ff" d="M473.34,-263.94C424.78,-238.04 339.7,-192.65 291.65,-167.02"/>
<polygon fill="#63b8ff" stroke="#63b8ff" points="293.03,-163.79 282.56,-162.17 289.73,-169.96 293.03,-163.79"/>
</a>
</g>
</g>
<!-- Node5 -->
<g id="Node000005" class="node">
<title>Node5</title>
<g id="a_Node000005"><a xlink:href="enum_8hpp.html" target="_top" xlink:title=" ">
<polygon fill="white" stroke="#666666" points="754,-96 642,-96 642,-66 754,-66 754,-96"/>
<text text-anchor="start" x="650" y="-84" font-family="Helvetica,sans-Serif" font-size="10.00">meltpooldg/utilities</text>
<text text-anchor="middle" x="698" y="-73" font-family="Helvetica,sans-Serif" font-size="10.00">/enum.hpp</text>
</a>
</g>
</g>
<!-- Node1&#45;&gt;Node5 -->
<g id="edge25_Node000001_Node000005" class="edge">
<title>Node1&#45;&gt;Node5</title>
<g id="a_edge25_Node000001_Node000005"><a xlink:title=" ">
<path fill="none" stroke="#63b8ff" d="M578.7,-280.05C654.9,-274.62 770.73,-261.03 798,-228 833.15,-185.42 769.67,-130.67 728.71,-101.82"/>
<polygon fill="#63b8ff" stroke="#63b8ff" points="730.58,-98.86 720.36,-96.07 726.61,-104.63 730.58,-98.86"/>
</a>
</g>
</g>
<!-- Node10 -->
<g id="Node000010" class="node">
<title>Node10</title>
<g id="a_Node000010"><a xlink:title=" ">
<polygon fill="#e0e0e0" stroke="#999999" points="939,-24.5 895,-24.5 895,-5.5 939,-5.5 939,-24.5"/>
<text text-anchor="middle" x="917" y="-12.5" font-family="Helvetica,sans-Serif" font-size="10.00">string</text>
</a>
</g>
</g>
<!-- Node1&#45;&gt;Node10 -->
<g id="edge26_Node000001_Node000010" class="edge">
<title>Node1&#45;&gt;Node10</title>
<g id="a_edge26_Node000001_Node000010"><a xlink:title=" ">
<path fill="none" stroke="#63b8ff" d="M578.64,-278.37C657.44,-271.26 780.53,-255.98 817,-228 881.77,-178.31 906.44,-76.31 914.08,-34.5"/>
<polygon fill="#63b8ff" stroke="#63b8ff" points="917.53,-35.05 915.77,-24.61 910.63,-33.87 917.53,-35.05"/>
</a>
</g>
</g>
<!-- Node11 -->
<g id="Node000011" class="node">
<title>Node11</title>
<g id="a_Node000011"><a xlink:href="linear__solver__data_8hpp.html" target="_top" xlink:title=" ">
<polygon fill="white" stroke="#666666" points="644.5,-162 499.5,-162 499.5,-132 644.5,-132 644.5,-162"/>
<text text-anchor="start" x="507.5" y="-150" font-family="Helvetica,sans-Serif" font-size="10.00">meltpooldg/linear_algebra</text>
<text text-anchor="middle" x="572" y="-139" font-family="Helvetica,sans-Serif" font-size="10.00">/linear_solver_data.hpp</text>
</a>
</g>
</g>
<!-- Node1&#45;&gt;Node11 -->
<g id="edge12_Node000001_Node000011" class="edge">
<title>Node1&#45;&gt;Node11</title>
<g id="a_edge12_Node000001_Node000011"><a xlink:title=" ">
<path fill="none" stroke="#63b8ff" d="M519.02,-263.8C530.21,-239.33 549.29,-197.62 561.24,-171.51"/>
<polygon fill="#63b8ff" stroke="#63b8ff" points="564.47,-172.88 565.44,-162.33 558.1,-169.97 564.47,-172.88"/>
</a>
</g>
</g>
<!-- Node12 -->
<g id="Node000012" class="node">
<title>Node12</title>
<g id="a_Node000012"><a xlink:href="predictor__data_8hpp.html" target="_top" xlink:title=" ">
<polygon fill="white" stroke="#666666" points="481.5,-162 336.5,-162 336.5,-132 481.5,-132 481.5,-162"/>
<text text-anchor="start" x="344.5" y="-150" font-family="Helvetica,sans-Serif" font-size="10.00">meltpooldg/linear_algebra</text>
<text text-anchor="middle" x="409" y="-139" font-family="Helvetica,sans-Serif" font-size="10.00">/predictor_data.hpp</text>
</a>
</g>
</g>
<!-- Node1&#45;&gt;Node12 -->
<g id="edge14_Node000001_Node000012" class="edge">
<title>Node1&#45;&gt;Node12</title>
<g id="a_edge14_Node000001_Node000012"><a xlink:title=" ">
<path fill="none" stroke="#63b8ff" d="M495.31,-263.8C476.83,-239 445.16,-196.52 425.76,-170.48"/>
<polygon fill="#63b8ff" stroke="#63b8ff" points="428.46,-168.25 419.68,-162.33 422.85,-172.44 428.46,-168.25"/>
</a>
</g>
</g>
<!-- Node13 -->
<g id="Node000013" class="node">
<title>Node13</title>
<g id="a_Node000013"><a xlink:href="time__integrator__data_8hpp.html" target="_top" xlink:title=" ">
<polygon fill="white" stroke="#666666" points="789,-228 633,-228 633,-198 789,-198 789,-228"/>
<text text-anchor="start" x="641" y="-216" font-family="Helvetica,sans-Serif" font-size="10.00">meltpooldg/time_integration</text>
<text text-anchor="middle" x="711" y="-205" font-family="Helvetica,sans-Serif" font-size="10.00">/time_integrator_data.hpp</text>
</a>
</g>
</g>
<!-- Node1&#45;&gt;Node13 -->
<g id="edge17_Node000001_Node000013" class="edge">
<title>Node1&#45;&gt;Node13</title>
<g id="a_edge17_Node000001_Node000013"><a xlink:title=" ">
<path fill="none" stroke="#63b8ff" d="M566.52,-263.96C596.13,-253.72 632.07,-241.29 660.7,-231.39"/>
<polygon fill="#63b8ff" stroke="#63b8ff" points="662.19,-234.58 670.5,-228 659.9,-227.96 662.19,-234.58"/>
</a>
</g>
</g>
<!-- Node4&#45;&gt;Node3 -->
<g id="edge4_Node000004_Node000003" class="edge">
<title>Node4&#45;&gt;Node3</title>
<g id="a_edge4_Node000004_Node000003"><a xlink:title=" ">
<path fill="none" stroke="#63b8ff" d="M263.19,-131.84C274.5,-109.57 296.55,-66.13 310.21,-39.23"/>
<polygon fill="#63b8ff" stroke="#63b8ff" points="313.41,-40.64 314.82,-30.14 307.17,-37.47 313.41,-40.64"/>
</a>
</g>
</g>
<!-- Node4&#45;&gt;Node5 -->
<g id="edge5_Node000004_Node000005" class="edge">
<title>Node4&#45;&gt;Node5</title>
<g id="a_edge5_Node000004_Node000005"><a xlink:title=" ">
<path fill="none" stroke="#63b8ff" d="M318,-133.64C321.38,-133.06 324.73,-132.51 328,-132 460.13,-111.41 497.22,-118.31 631.99,-96.25"/>
<polygon fill="#63b8ff" stroke="#63b8ff" points="632.58,-99.7 641.87,-94.61 631.43,-92.79 632.58,-99.7"/>
</a>
</g>
</g>
<!-- Node5&#45;&gt;Node3 -->
<g id="edge6_Node000005_Node000003" class="edge">
<title>Node5&#45;&gt;Node3</title>
<g id="a_edge6_Node000005_Node000003"><a xlink:title=" ">
<path fill="none" stroke="#63b8ff" d="M641.85,-67.5C639.2,-66.98 636.57,-66.47 634,-66 531.46,-47.08 502.56,-48.04 395.58,-30.05"/>
<polygon fill="#63b8ff" stroke="#63b8ff" points="396.12,-26.59 385.67,-28.37 394.95,-33.49 396.12,-26.59"/>
</a>
</g>
</g>
<!-- Node6 -->
<g id="Node000006" class="node">
<title>Node6</title>
<g id="a_Node000006"><a xlink:title=" ">
<polygon fill="#e0e0e0" stroke="#999999" points="603.5,-24.5 478.5,-24.5 478.5,-5.5 603.5,-5.5 603.5,-24.5"/>
<text text-anchor="middle" x="541" y="-12.5" font-family="Helvetica,sans-Serif" font-size="10.00">deal.II/base/patterns.h</text>
</a>
</g>
</g>
<!-- Node5&#45;&gt;Node6 -->
<g id="edge7_Node000005_Node000006" class="edge">
<title>Node5&#45;&gt;Node6</title>
<g id="a_edge7_Node000005_Node000006"><a xlink:title=" ">
<path fill="none" stroke="#63b8ff" d="M663.55,-65.95C636.01,-54.73 597.79,-39.15 571.39,-28.39"/>
<polygon fill="#63b8ff" stroke="#63b8ff" points="572.48,-25.05 561.89,-24.52 569.83,-31.53 572.48,-25.05"/>
</a>
</g>
</g>
<!-- Node7 -->
<g id="Node000007" class="node">
<title>Node7</title>
<g id="a_Node000007"><a xlink:title=" ">
<polygon fill="#e0e0e0" stroke="#999999" points="877,-30 765,-30 765,0 877,0 877,-30"/>
<text text-anchor="start" x="773" y="-18" font-family="Helvetica,sans-Serif" font-size="10.00">meltpooldg/utilities</text>
<text text-anchor="middle" x="821" y="-7" font-family="Helvetica,sans-Serif" font-size="10.00">/better_enum.hpp</text>
</a>
</g>
</g>
<!-- Node5&#45;&gt;Node7 -->
<g id="edge8_Node000005_Node000007" class="edge">
<title>Node5&#45;&gt;Node7</title>
<g id="a_edge8_Node000005_Node000007"><a xlink:title=" ">
<path fill="none" stroke="#63b8ff" d="M724.99,-65.95C742.62,-56.78 765.83,-44.71 785.02,-34.72"/>
<polygon fill="#63b8ff" stroke="#63b8ff" points="786.81,-37.73 794.07,-30.01 783.58,-31.52 786.81,-37.73"/>
</a>
</g>
</g>
<!-- Node8 -->
<g id="Node000008" class="node">
<title>Node8</title>
<g id="a_Node000008"><a xlink:title=" ">
<polygon fill="#e0e0e0" stroke="#999999" points="746.5,-30 621.5,-30 621.5,0 746.5,0 746.5,-30"/>
<text text-anchor="start" x="629.5" y="-18" font-family="Helvetica,sans-Serif" font-size="10.00">boost/algorithm/string</text>
<text text-anchor="middle" x="684" y="-7" font-family="Helvetica,sans-Serif" font-size="10.00">/join.hpp</text>
</a>
</g>
</g>
<!-- Node5&#45;&gt;Node8 -->
<g id="edge9_Node000005_Node000008" class="edge">
<title>Node5&#45;&gt;Node8</title>
<g id="a_edge9_Node000005_Node000008"><a xlink:title=" ">
<path fill="none" stroke="#63b8ff" d="M694.89,-65.8C693.24,-58.26 691.17,-48.78 689.28,-40.13"/>
<polygon fill="#63b8ff" stroke="#63b8ff" points="692.65,-39.19 687.1,-30.16 685.82,-40.68 692.65,-39.19"/>
</a>
</g>
</g>
<!-- Node9 -->
<g id="Node000009" class="node">
<title>Node9</title>
<g id="a_Node000009"><a xlink:title=" ">
<polygon fill="#e0e0e0" stroke="#999999" points="460,-24.5 404,-24.5 404,-5.5 460,-5.5 460,-24.5"/>
<text text-anchor="middle" x="432" y="-12.5" font-family="Helvetica,sans-Serif" font-size="10.00">sstream</text>
</a>
</g>
</g>
<!-- Node5&#45;&gt;Node9 -->
<g id="edge10_Node000005_Node000009" class="edge">
<title>Node5&#45;&gt;Node9</title>
<g id="a_edge10_Node000005_Node000009"><a xlink:title=" ">
<path fill="none" stroke="#63b8ff" d="M641.97,-67.74C574.8,-53.03 471.05,-30.31 470,-30 467.72,-29.33 465.39,-28.6 463.04,-27.83"/>
<polygon fill="#63b8ff" stroke="#63b8ff" points="464.13,-24.5 453.53,-24.51 461.82,-31.11 464.13,-24.5"/>
</a>
</g>
</g>
<!-- Node5&#45;&gt;Node10 -->
<g id="edge11_Node000005_Node000010" class="edge">
<title>Node5&#45;&gt;Node10</title>
<g id="a_edge11_Node000005_Node000010"><a xlink:title=" ">
<path fill="none" stroke="#63b8ff" d="M754.26,-67.6C792,-58.65 842.57,-45.46 886,-30 887.39,-29.5 888.81,-28.97 890.23,-28.42"/>
<polygon fill="#63b8ff" stroke="#63b8ff" points="891.65,-31.62 899.5,-24.51 888.93,-25.17 891.65,-31.62"/>
</a>
</g>
</g>
<!-- Node11&#45;&gt;Node5 -->
<g id="edge13_Node000011_Node000005" class="edge">
<title>Node11&#45;&gt;Node5</title>
<g id="a_edge13_Node000011_Node000005"><a xlink:title=" ">
<path fill="none" stroke="#63b8ff" d="M599.65,-131.95C617.79,-122.74 641.7,-110.6 661.41,-100.59"/>
<polygon fill="#63b8ff" stroke="#63b8ff" points="663.08,-103.66 670.41,-96.01 659.91,-97.42 663.08,-103.66"/>
</a>
</g>
</g>
<!-- Node12&#45;&gt;Node3 -->
<g id="edge15_Node000012_Node000003" class="edge">
<title>Node12&#45;&gt;Node3</title>
<g id="a_edge15_Node000012_Node000003"><a xlink:title=" ">
<path fill="none" stroke="#63b8ff" d="M399.52,-131.84C384.49,-109.37 355.03,-65.36 337.08,-38.53"/>
<polygon fill="#63b8ff" stroke="#63b8ff" points="339.93,-36.51 331.46,-30.14 334.12,-40.4 339.93,-36.51"/>
</a>
</g>
</g>
<!-- Node12&#45;&gt;Node5 -->
<g id="edge16_Node000012_Node000005" class="edge">
<title>Node12&#45;&gt;Node5</title>
<g id="a_edge16_Node000012_Node000005"><a xlink:title=" ">
<path fill="none" stroke="#63b8ff" d="M472.42,-131.95C519.58,-121.51 583.77,-107.3 631.62,-96.7"/>
<polygon fill="#63b8ff" stroke="#63b8ff" points="632.56,-100.08 641.57,-94.5 631.05,-93.24 632.56,-100.08"/>
</a>
</g>
</g>
<!-- Node13&#45;&gt;Node3 -->
<g id="edge18_Node000013_Node000003" class="edge">
<title>Node13&#45;&gt;Node3</title>
<g id="a_edge18_Node000013_Node000003"><a xlink:title=" ">
<path fill="none" stroke="#63b8ff" d="M705.03,-197.89C696.53,-179.59 679.11,-148.13 654,-132 582.79,-86.26 546.59,-124.8 467,-96 424.55,-80.64 379.63,-54.03 351.24,-35.75"/>
<polygon fill="#63b8ff" stroke="#63b8ff" points="352.91,-32.66 342.62,-30.13 349.08,-38.52 352.91,-32.66"/>
</a>
</g>
</g>
<!-- Node13&#45;&gt;Node5 -->
<g id="edge23_Node000013_Node000005" class="edge">
<title>Node13&#45;&gt;Node5</title>
<g id="a_edge23_Node000013_Node000005"><a xlink:title=" ">
<path fill="none" stroke="#63b8ff" d="M716.99,-197.99C723.05,-181.92 730.77,-154.83 725,-132 722.61,-122.55 718.04,-112.94 713.34,-104.71"/>
<polygon fill="#63b8ff" stroke="#63b8ff" points="716.27,-102.8 708.07,-96.08 710.29,-106.44 716.27,-102.8"/>
</a>
</g>
</g>
<!-- Node13&#45;&gt;Node7 -->
<g id="edge22_Node000013_Node000007" class="edge">
<title>Node13&#45;&gt;Node7</title>
<g id="a_edge22_Node000013_Node000007"><a xlink:title=" ">
<path fill="none" stroke="#63b8ff" d="M719.45,-197.6C725.27,-187.63 733.17,-174.04 740,-162 764.55,-118.74 792.58,-67.87 808.4,-39.04"/>
<polygon fill="#63b8ff" stroke="#63b8ff" points="811.53,-40.6 813.27,-30.14 805.39,-37.23 811.53,-40.6"/>
</a>
</g>
</g>
<!-- Node13&#45;&gt;Node10 -->
<g id="edge24_Node000013_Node000010" class="edge">
<title>Node13&#45;&gt;Node10</title>
<g id="a_edge24_Node000013_Node000010"><a xlink:title=" ">
<path fill="none" stroke="#63b8ff" d="M725.82,-197.9C763.19,-162.34 861.14,-69.14 900.39,-31.81"/>
<polygon fill="#63b8ff" stroke="#63b8ff" points="903,-34.16 907.83,-24.73 898.17,-29.08 903,-34.16"/>
</a>
</g>
</g>
<!-- Node13&#45;&gt;Node11 -->
<g id="edge19_Node000013_Node000011" class="edge">
<title>Node13&#45;&gt;Node11</title>
<g id="a_edge19_Node000013_Node000011"><a xlink:title=" ">
<path fill="none" stroke="#63b8ff" d="M680.5,-197.95C660.31,-188.66 633.63,-176.38 611.78,-166.32"/>
<polygon fill="#63b8ff" stroke="#63b8ff" points="612.98,-163.02 602.43,-162.01 610.05,-169.37 612.98,-163.02"/>
</a>
</g>
</g>
<!-- Node14 -->
<g id="Node000014" class="node">
<title>Node14</title>
<g id="a_Node000014"><a xlink:href="nonlinear__solver__data_8hpp.html" target="_top" xlink:title=" ">
<polygon fill="white" stroke="#666666" points="624.5,-96 475.5,-96 475.5,-66 624.5,-66 624.5,-96"/>
<text text-anchor="start" x="483.5" y="-84" font-family="Helvetica,sans-Serif" font-size="10.00">meltpooldg/linear_algebra</text>
<text text-anchor="middle" x="550" y="-73" font-family="Helvetica,sans-Serif" font-size="10.00">/nonlinear_solver_data.hpp</text>
</a>
</g>
</g>
<!-- Node13&#45;&gt;Node14 -->
<g id="edge20_Node000013_Node000014" class="edge">
<title>Node13&#45;&gt;Node14</title>
<g id="a_edge20_Node000013_Node000014"><a xlink:title=" ">
<path fill="none" stroke="#63b8ff" d="M710.5,-197.98C709.12,-180.37 704.21,-150.25 687,-132 672.82,-116.96 653.75,-106.43 634.35,-99.06"/>
<polygon fill="#63b8ff" stroke="#63b8ff" points="635.42,-95.73 624.82,-95.69 633.08,-102.32 635.42,-95.73"/>
</a>
</g>
</g>
<!-- Node14&#45;&gt;Node3 -->
<g id="edge21_Node000014_Node000003" class="edge">
<title>Node14&#45;&gt;Node3</title>
<g id="a_edge21_Node000014_Node000003"><a xlink:title=" ">
<path fill="none" stroke="#63b8ff" d="M499.96,-65.95C465.22,-56.2 418.75,-43.16 382.01,-32.84"/>
<polygon fill="#63b8ff" stroke="#63b8ff" points="382.49,-29.35 371.92,-30.01 380.6,-36.08 382.49,-29.35"/>
</a>
</g>
</g>
</g>
</svg>
